<?xml version="1.0" encoding="UTF-8" standalone="no" ?>
<!DOCTYPE svg PUBLIC "-//W3C//DTD SVG 1.1//EN" "http://www.w3.org/Graphics/SVG/1.1/DTD/svg11.dtd">
<svg xmlns="http://www.w3.org/2000/svg" xmlns:xlink="http://www.w3.org/1999/xlink" version="1.1" width="1280" height="1024" viewBox="0 0 1280 1024" xml:space="preserve">
<desc>Created with Fabric.js 5.3.0</desc>
<defs>
</defs>
<g transform="matrix(1 0 0 1 640 512)" id="background-logo"  >
<rect style="stroke: none; stroke-width: 0; stroke-dasharray: none; stroke-linecap: butt; stroke-dashoffset: 0; stroke-linejoin: miter; stroke-miterlimit: 4; fill: rgb(54,83,89); fill-rule: nonzero; opacity: 1;"  paint-order="stroke"  x="-640" y="-512" rx="0" ry="0" width="1280" height="1024" />
</g>
<g transform="matrix(1.9211538461538462 0 0 1.9211538461538462 640 475.0415944117192)" id="logo-logo"  >
<g style=""  paint-order="stroke"   >
		<g transform="matrix(1.999590774025221 0 0 1.999590774025221 0 0)"  >
<path style="stroke: none; stroke-width: 1; stroke-dasharray: none; stroke-linecap: butt; stroke-dashoffset: 0; stroke-linejoin: miter; stroke-miterlimit: 4; fill: rgb(242,212,155); fill-rule: evenodd; opacity: 1;"  paint-order="stroke"  transform=" translate(-297.24999995, -421.1408695000001)" d="M 247.5 368.1538086 L 347 368.1538086 L 347 397.074707 L 347 398.3256836 L 347 409.0068359 L 347 413.2856445 L 347 413.7724609 L 347 417.0288086 L 362.5839844 417.0288086 L 362.5839844 414.1469727 C 358.944336 413.8725586 355.82324220000004 411.5444336 355.82324220000004 411.5444336 C 357.16699220000004 412.0444336 358.60449220000004 412.4194336 358.60449220000004 412.4194336 C 353.57226560000004 410.4194336 349.57324220000004 404.6694336 349.57324220000004 404.6694336 C 353.82324220000004 405.4038086 357.29199220000004 407.9350586 357.29199220000004 407.9350586 C 356.94824220000004 407.3095703 355.72949220000004 406.3569336 355.72949220000004 406.3569336 C 359.20703130000004 407.5556641 361.43164060000004 410.4165039 362.5839844 412.3237305 L 362.5839844 402.2719727 C 358.944336 401.9975586 355.82324220000004 399.6694336 355.82324220000004 399.6694336 C 357.16699220000004 400.1694336 358.60449220000004 400.5444336 358.60449220000004 400.5444336 C 353.57226560000004 398.5444336 349.57324220000004 392.7944336 349.57324220000004 392.7944336 C 353.82324220000004 393.5288086 357.29199220000004 396.0595703 357.29199220000004 396.0595703 C 356.94824220000004 395.4345703 355.72949220000004 394.4814453 355.72949220000004 394.4814453 C 359.20703130000004 395.68017580000003 361.43164060000004 398.5415039 362.5839844 400.4487305 L 362.5839844 389.5400391 C 358.944336 389.2651368 355.82324220000004 386.9370118 355.82324220000004 386.9370118 C 357.16699220000004 387.43750009999997 358.60449220000004 387.81250009999997 358.60449220000004 387.81250009999997 C 353.57226560000004 385.8120118 349.57324220000004 380.06250009999997 349.57324220000004 380.06250009999997 C 353.82324220000004 380.79687509999997 357.29199220000004 383.3276368 357.29199220000004 383.3276368 C 356.94824220000004 382.7026368 355.72949220000004 381.7495118 355.72949220000004 381.7495118 C 359.20703130000004 382.9487306 361.43164060000004 385.8100587 362.5839844 387.7163087 L 362.5839844 379.55029310000003 C 362.5839844 378.2851564 362.6455078 377.04150400000003 362.76855470000004 375.8242189 C 359.12890630000004 375.3271486 356.13574220000004 372.7680666 356.13574220000004 372.7680666 C 357.444336 373.3559572 358.85253910000006 373.8261721 358.85253910000006 373.8261721 C 353.9658203000001 371.4951174 350.3583985000001 365.4912112 350.3583985000001 365.4912112 C 354.54980480000006 366.5073245 357.8427735000001 369.26416040000004 357.8427735000001 369.26416040000004 C 357.54101570000006 368.617676 356.3886719000001 367.58544950000004 356.3886719000001 367.58544950000004 C 359.9345703000001 369.0795901 361.9912110000001 372.29541040000004 362.9638672000001 374.26220730000006 C 363.6582031000001 369.6040042000001 365.3154297000001 365.37841820000006 368.0458985000001 361.88085960000006 C 364.99316410000006 359.8295901000001 363.4345704000001 356.2070315000001 363.4345704000001 356.2070315000001 C 364.3476563000001 357.3120120000001 365.4052735000001 358.3549807000001 365.4052735000001 358.3549807000001 C 362.04785160000006 354.1074221000001 361.4589844000001 347.12792990000014 361.4589844000001 347.12792990000014 C 364.7724610000001 349.88916040000015 366.5107422000001 353.81494160000017 366.5107422000001 353.81494160000017 C 366.5253906000001 353.1020510000002 365.9462891000001 351.66748070000017 365.9462891000001 351.66748070000017 C 368.58496100000013 354.7045901000002 368.9306641000001 358.71435570000017 368.9013672000001 360.85009790000015 C 372.8222656000001 356.39355490000014 378.6601563000001 353.27783230000017 386.6708985000001 352.20068380000015 C 380.4375001000001 353.87060570000017 375.00195320000006 356.76513690000013 371.1054688000001 361.12255880000015 C 373.0947266000001 360.08789080000014 376.2626954000001 358.92334000000017 379.6542969000001 359.58154320000017 C 379.6542969000001 359.58154320000017 378.1220703000001 359.7973635000002 377.5126953000001 360.16650410000017 C 377.5126953000001 360.16650410000017 381.78125000000006 359.7094728000002 385.82910160000006 361.19824240000014 C 385.82910160000006 361.19824240000014 379.4902344000001 364.17822290000015 374.13281250000006 363.39453150000014 C 374.13281250000006 363.39453150000014 375.56542970000004 363.78857450000015 376.97949220000004 364.02685570000017 C 376.97949220000004 364.02685570000017 373.01855470000004 364.4926760000002 369.70605470000004 362.8427737000002 C 367.47753910000006 365.85888700000015 365.90234380000004 369.4960940000002 365.17089840000006 373.8208010000002 C 366.4970703000001 372.0117190000002 368.83105470000004 369.5512697000002 372.18164060000004 368.6411135000002 C 372.18164060000004 368.6411135000002 370.90136720000004 369.5107424000002 370.51660150000004 370.11181660000017 C 370.51660150000004 370.11181660000017 374.14648430000005 367.81787130000015 378.43652340000006 367.36865250000017 C 378.43652340000006 367.36865250000017 374.06152340000006 372.83837910000017 368.90820310000004 374.4985353000002 C 368.90820310000004 374.4985353000002 370.36718750000006 374.22021500000017 371.74121090000006 373.8110353000002 C 371.74121090000006 373.8110353000002 368.50878900000004 375.9018556000002 364.88476560000004 375.9565431000002 C 364.7695312 377.1088869000002 364.70996090000006 378.3066408000002 364.70996090000006 379.5502931000002 L 364.70996090000006 387.7045900000002 C 365.8642578000001 385.79785170000025 368.08691400000004 382.94628920000025 371.55761720000004 381.74951190000024 C 371.55761720000004 381.74951190000024 370.33789060000004 382.70263690000024 369.99511720000004 383.32763690000024 C 369.99511720000004 383.32763690000024 373.46289060000004 380.7968752000002 377.71386720000004 380.0625002000002 C 377.71386720000004 380.0625002000002 373.71386720000004 385.81201190000024 368.68261720000004 387.8125002000002 C 368.68261720000004 387.8125002000002 370.11914060000004 387.4375002000002 371.46386720000004 386.93701190000024 C 371.46386720000004 386.93701190000024 368.34570310000004 389.26220720000026 364.70996090000006 389.53955100000024 L 364.70996090000006 400.43603540000026 C 365.8642578000001 398.52978540000026 368.08691400000004 395.67822290000026 371.55761720000004 394.48144560000026 C 371.55761720000004 394.48144560000026 370.33789060000004 395.43457060000026 369.99511720000004 396.05957060000026 C 369.99511720000004 396.05957060000026 373.46289060000004 393.52880890000023 377.71386720000004 392.79443390000023 C 377.71386720000004 392.79443390000023 373.71386720000004 398.54443390000023 368.68261720000004 400.54443390000023 C 368.68261720000004 400.54443390000023 370.11914060000004 400.16943390000023 371.46386720000004 399.66943390000023 C 371.46386720000004 399.66943390000023 368.34570310000004 401.9941409000002 364.70996090000006 402.2714847000002 L 364.70996090000006 412.3115238000002 C 365.8642578000001 410.40478550000023 368.08691400000004 407.55322300000023 371.55761720000004 406.3569340000002 C 371.55761720000004 406.3569340000002 370.33789060000004 407.3095707000002 369.99511720000004 407.9350590000002 C 369.99511720000004 407.9350590000002 373.46289060000004 405.4038090000002 377.71386720000004 404.6694340000002 C 377.71386720000004 404.6694340000002 373.71386720000004 410.4194340000002 368.68261720000004 412.4194340000002 C 368.68261720000004 412.4194340000002 370.11914060000004 412.0444340000002 371.46386720000004 411.5444340000002 C 371.46386720000004 411.5444340000002 368.34570310000004 413.8696293000002 364.70996090000006 414.14648480000017 L 364.70996090000006 417.0288090000002 L 378.6875 417.0288090000002 L 378.6875 425.3168949000002 C 375.1875 425.3168949000002 372.3505859 428.1538090000002 372.3505859 431.6538090000002 C 372.3505859 435.1538090000002 375.1875 437.9907231000002 378.6875 437.9907231000002 L 378.6875 446.2788090000002 L 374.4335937 446.2788090000002 C 367.2470703 446.7797856000002 352.46093740000003 450.0161137000002 341.95312490000003 467.1655278000002 C 330.45410150000004 487.6625981000002 315.38085930000005 495.15380910000016 297.24999990000003 495.15380910000016 C 277.22216790000004 495.15380910000016 261.95117180000005 484.62939500000016 252.54687490000003 467.1655278000002 C 242.03906240000003 450.0161137000002 227.25292960000004 446.7797856000002 220.06640610000005 446.2788090000002 L 215.8125 446.2788090000002 L 215.8125 437.9907231000002 C 219.3125 437.9907231000002 222.1494141 435.1538090000002 222.1494141 431.6538090000002 C 222.1494141 428.1538090000002 219.3125 425.3168949000002 215.8125 425.3168949000002 L 215.8125 417.0288090000002 L 229.7905273 417.0288090000002 L 229.7905273 414.14648480000017 C 226.1542968 413.86962930000016 223.0371093 411.5444340000002 223.0371093 411.5444340000002 C 224.3808593 412.0444340000002 225.8183593 412.4194340000002 225.8183593 412.4194340000002 C 220.786621 410.4194340000002 216.7871093 404.6694340000002 216.7871093 404.6694340000002 C 221.0371093 405.4038090000002 224.5058593 407.9350590000002 224.5058593 407.9350590000002 C 224.1621093 407.3095707000002 222.9433593 406.3569340000002 222.9433593 406.3569340000002 C 226.4140624 407.5532231000002 228.6367187 410.4047856000002 229.7905273 412.3115238000002 L 229.7905273 402.2714847000002 C 226.1542968 401.9941409000002 223.0371093 399.66943390000023 223.0371093 399.66943390000023 C 224.3808593 400.16943390000023 225.8183593 400.54443390000023 225.8183593 400.54443390000023 C 220.786621 398.54443390000023 216.7871093 392.79443390000023 216.7871093 392.79443390000023 C 221.0371093 393.52880890000023 224.5058593 396.05957060000026 224.5058593 396.05957060000026 C 224.1621093 395.43457060000026 222.9433593 394.48144560000026 222.9433593 394.48144560000026 C 226.4140624 395.67822290000026 228.6367187 398.52978540000026 229.7905273 400.43603540000026 L 229.7905273 389.53955100000024 C 226.1542968 389.26220720000026 223.0371093 386.93701190000024 223.0371093 386.93701190000024 C 224.3808593 387.4375002000002 225.8183593 387.8125002000002 225.8183593 387.8125002000002 C 220.786621 385.81201190000024 216.7871093 380.0625002000002 216.7871093 380.0625002000002 C 221.0371093 380.7968752000002 224.5058593 383.32763690000024 224.5058593 383.32763690000024 C 224.1621093 382.70263690000024 222.9433593 381.74951190000024 222.9433593 381.74951190000024 C 226.4140624 382.94628920000025 228.6367187 385.79785170000025 229.7905273 387.7045900000002 L 229.7905273 379.5502931000002 C 229.7905273 378.3066408000002 229.73095700000002 377.1088868000002 229.6152343 375.9565431000002 C 225.9912109 375.9018556000002 222.758789 373.8110353000002 222.758789 373.8110353000002 C 224.1328124 374.22021500000017 225.5917968 374.4985353000002 225.5917968 374.4985353000002 C 220.4384765 372.8383790000002 216.0634765 367.36865250000017 216.0634765 367.36865250000017 C 220.3535156 367.81787130000015 223.9833984 370.11181660000017 223.9833984 370.11181660000017 C 223.5986328 369.51074240000014 222.3193359 368.6411135000002 222.3193359 368.6411135000002 C 225.6689453 369.55126980000017 228.0039062 372.0117190000002 229.3291015 373.8208010000002 C 228.59765620000002 369.4960940000002 227.0224609 365.8588869000002 224.7949218 362.8427737000002 C 221.4814452 364.4926760000002 217.5214843 364.02685570000017 217.5214843 364.02685570000017 C 218.9350585 363.7885744000002 220.3671874 363.39453150000014 220.3671874 363.39453150000014 C 215.00976550000001 364.17822290000015 208.6708983 361.19824240000014 208.6708983 361.19824240000014 C 212.7187499 359.70947290000015 216.9882811 360.16650410000017 216.9882811 360.16650410000017 C 216.3779295 359.7973635000002 214.845703 359.58154320000017 214.845703 359.58154320000017 C 218.2382811 358.9233401000002 221.40576159999998 360.08789090000016 223.3945311 361.12255880000015 C 219.4980467 356.76513690000013 214.06298809999998 353.87060570000017 207.82910139999998 352.20068380000015 C 215.8398436 353.27783220000015 221.67773419999997 356.39355490000014 225.59960919999997 360.85009790000015 C 225.56933579999998 358.71435570000017 225.91552719999999 354.70459010000013 228.55371079999998 351.66748070000017 C 228.55371079999998 351.66748070000017 227.97460919999997 353.1020510000002 227.98974599999997 353.81494160000017 C 227.98974599999997 353.81494160000017 229.72802729999998 349.8891603000002 233.04150379999996 347.12792990000014 C 233.04150379999996 347.12792990000014 232.45263659999995 354.1074221000001 229.09521469999996 358.35498070000017 C 229.09521469999996 358.35498070000017 230.15234359999997 357.3120119000002 231.06640609999997 356.20703150000014 C 231.06640609999997 356.20703150000014 229.50683579999998 359.82959010000013 226.45410139999996 361.8808596000001 C 229.18457019999997 365.3784182000001 230.84179669999995 369.6040041000001 231.53613269999997 374.2622073000001 C 232.50927719999996 372.2954104000001 234.56591789999996 369.07959010000013 238.11132799999996 367.5854495000001 C 238.11132799999996 367.5854495000001 236.95898419999995 368.6176761000001 236.65820299999996 369.2641604000001 C 236.65820299999996 369.2641604000001 239.95019519999997 366.5073245000001 244.14160139999996 365.49121120000007 C 244.14160139999996 365.49121120000007 240.53466779999997 371.49511750000005 235.64746079999995 373.82617210000006 C 235.64746079999995 373.82617210000006 237.05664049999996 373.35595730000006 238.36425769999994 372.76806660000005 C 238.36425769999994 372.76806660000005 235.37109359999994 375.32714860000004 231.73144519999994 375.82421890000006 C 231.85546859999994 377.04150410000005 231.91650379999993 378.28515640000006 231.91650379999993 379.5502931000001 L 231.91650379999993 387.71630870000007 C 233.06835929999994 385.81005870000007 235.29345689999994 382.9487306000001 238.77148429999994 381.74951180000005 C 238.77148429999994 381.74951180000005 237.55273429999994 382.70263680000005 237.20898429999994 383.32763680000005 C 237.20898429999994 383.32763680000005 240.67724599999994 380.7968751 244.92773429999994 380.0625001 C 244.92773429999994 380.0625001 240.92773429999994 385.81201180000005 235.89648429999994 387.8125001 C 235.89648429999994 387.8125001 237.33349599999994 387.4375001 238.67773429999994 386.93701180000005 C 238.67773429999994 386.93701180000005 235.55566399999995 389.26513680000005 231.91650379999993 389.54003910000006 L 231.91650379999993 400.44873050000007 C 233.06835929999994 398.54150390000007 235.29345689999994 395.6801758000001 238.77148429999994 394.4814453000001 C 238.77148429999994 394.4814453000001 237.55273429999994 395.4345703000001 237.20898429999994 396.0595703000001 C 237.20898429999994 396.0595703000001 240.67724599999994 393.52880860000005 244.92773429999994 392.79443360000005 C 244.92773429999994 392.79443360000005 240.92773429999994 398.54443360000005 235.89648429999994 400.54443360000005 C 235.89648429999994 400.54443360000005 237.33349599999994 400.16943360000005 238.67773429999994 399.66943360000005 C 238.67773429999994 399.66943360000005 235.55566399999995 401.99755860000005 231.91650379999993 402.27197270000005 L 231.91650379999993 412.32373050000007 C 233.06835929999994 410.41650390000007 235.29345689999994 407.55566410000006 238.77148429999994 406.35693360000005 C 238.77148429999994 406.35693360000005 237.55273429999994 407.3095703000001 237.20898429999994 407.93505860000005 C 237.20898429999994 407.93505860000005 240.67724599999994 405.40380860000005 244.92773429999994 404.66943360000005 C 244.92773429999994 404.66943360000005 240.92773429999994 410.41943360000005 235.89648429999994 412.41943360000005 C 235.89648429999994 412.41943360000005 237.33349599999994 412.04443360000005 238.67773429999994 411.54443360000005 C 238.67773429999994 411.54443360000005 235.55566399999995 413.87255860000005 231.91650379999993 414.14697270000005 L 231.91650379999993 417.02880860000005 L 247.5 417.02880860000005 L 247.5 413.7729492 L 247.5 413.28466790000004 L 247.5 409.00683590000006 L 247.5 398.32568360000005 L 247.5 397.07470700000005 L 247.5 368.1538086 L 247.5 368.1538086 z M 322.1875 452.7856445 L 324.4804688 456.9467773 L 329.03027349999996 457.7563476 L 325.78027349999996 461.22314450000005 L 326.41699229999995 465.79931640000007 L 322.11523449999993 463.7807617000001 L 317.95898449999993 465.79931640000007 L 318.54980479999995 461.0854492000001 L 315.34570319999995 457.7563476000001 L 320.0117187999999 456.8618163000001 L 322.1875 452.7856445 L 322.1875 452.7856445 z M 272.3125 452.7856445 L 274.6054688 456.9467773 L 279.1547852 457.7563476 L 275.90527349999996 461.22314450000005 L 276.54101569999995 465.79931640000007 L 272.24023439999996 463.7807617000001 L 268.08398439999996 465.79931640000007 L 268.6748047 461.0854492000001 L 265.4702149 457.7563476000001 L 270.1367188 456.8618163000001 L 272.3125 452.7856445 L 272.3125 452.7856445 z M 312.8193359 408.9013672 L 313.9423828 389.9125977 L 316.66699220000004 390.2539063 L 314.1064453 410.6791993 L 299.9199219 408.9013673 L 297.5947266 408.9013673 L 297.5947266 388.315918 L 312.819336 388.315918 L 312.819336 408.9013672 L 312.8193359 408.9013672 z M 281.6816406 408.9785156 L 280.5581054 389.9897461 L 277.8339843 390.331543 L 280.3935546 410.7563477 L 294.580078 408.9785157 L 296.90624990000003 408.9785157 L 296.90624990000003 388.3935548 L 281.6816405 388.3935548 L 281.6816405 408.9785156 L 281.6816406 408.9785156 z M 290.4726563 478.5219727 L 310.7470704 478.5219727 C 311.3613282 478.5219727 311.8642579 479.0239258 311.8642579 479.6391602 L 311.8642579 481.057129 L 299.2353516 481.916504 L 313.6689454 481.916504 C 314.55468759999997 481.916504 315.279297 482.6411134 315.279297 483.5268556 L 315.279297 485.1372072 L 285.9414064 485.1372072 L 285.9414064 483.5268556 C 285.9414064 482.6411134 286.6660158 481.916504 287.551758 481.916504 L 289.3564455 481.916504 L 289.3564455 479.6391602 C 289.3564453 479.0239258 289.8583984 478.5219727 290.4726563 478.5219727 L 290.4726563 478.5219727 z M 298.0957031 467.4516602 L 298.734375 469.1430665 L 282.6992187 481.0170899 L 280.8857421 479.6879883 L 282.82812490000003 482.31201169999997 C 283.1660155 482.76708979999995 283.0688476 483.41650389999995 282.61425770000005 483.75244139999995 L 281.7153319000001 484.41845699999993 C 281.25976550000007 484.75537109999993 280.61132800000007 484.65869139999995 280.27441390000007 484.20361319999995 L 276.43945300000007 479.02392569999995 C 276.1015624000001 478.56884759999997 276.1982421000001 477.92041009999997 276.6538085000001 477.58251939999997 L 277.5522460000001 476.91748029999997 C 278.0078124000001 476.58056619999996 278.6562499000001 476.67724589999995 278.9931640000001 477.13232409999995 L 279.6582031000001 478.03076159999995 L 296.6259765000001 465.46630849999997 L 295.8974609000001 464.48291009999997 C 295.7358398000001 464.26416009999997 295.7822265000001 463.95361319999995 296.0009765000001 463.7915038 L 296.4316406000001 463.4721679 L 293.4609375000001 459.4604491 L 294.6650391000001 458.1000975 L 293.2363282000001 459.1567381 C 292.4960938000001 459.70556619999996 291.4418946000001 459.5483397 290.8935548000001 458.80810529999997 L 290.8935548000001 458.80810529999997 C 290.3452150000001 458.06689439999997 290.5019532000001 457.01318339999995 291.2426759000001 456.46533189999997 L 298.7685548000001 450.8920897 C 299.50878920000014 450.3432616 300.56347670000014 450.5004881 301.1113282000001 451.2416991 L 301.1123048000001 451.2426757 C 301.6601564000001 451.9819335 301.5029298000001 453.0356445 300.7626954000001 453.5844726 L 300.7626954000001 453.5844726 L 311.3232423000001 467.84716790000004 L 309.39062510000014 469.96533200000005 L 311.6513673000001 468.29052730000006 C 312.3925782000001 467.74267570000006 313.44628920000014 467.89892570000006 313.9951173000001 468.6401367000001 L 313.9951173000001 468.6401367000001 C 314.5429689000001 469.3803711000001 314.3857423000001 470.4340820000001 313.6455079000001 470.9829101000001 L 306.1201173000001 476.55615230000006 C 305.3789064000001 477.10400390000007 304.3242189000001 476.94677730000006 303.7763673000001 476.20654290000004 L 303.7763673000001 476.20654290000004 C 303.22753920000014 475.46533200000005 303.3857423000001 474.411621 304.12597670000014 473.86376950000005 L 300.98144540000015 469.61767570000006 L 300.55078130000015 469.9360351000001 C 300.33300790000015 470.0981445000001 300.02148440000013 470.0512695000001 299.85937500000017 469.8334960000001 L 298.0957031 467.4516602 L 298.0957031 467.4516602 z M 269.3974609 414.3339844 L 325.102539 414.3339844 L 325.102539 415.95849610000005 L 269.3974609 415.95849610000005 L 269.3974609 414.3339844 L 269.3974609 414.3339844 z M 269.3974609 447.300293 L 325.102539 447.300293 L 325.102539 448.925293 L 269.3974609 448.925293 L 269.3974609 447.300293 L 269.3974609 447.300293 z M 252.0009766 417.0288086 L 342.4990235 417.0288086 L 342.4990235 411.3266602 L 342.4990235 410.4936524 L 342.4990235 397.074707 L 342.4990235 396.42822259999997 C 330.33105470000004 394.5058593 320.7119141 384.9174804 318.7441407 372.76416009999997 L 275.756836 372.76416009999997 C 273.7885743 384.9174804 264.1699219 394.5058593 252.00097660000003 396.42822259999997 L 252.00097660000003 397.074707 L 252.00097660000003 410.4941406 L 252.00097660000003 411.32666009999997 L 252.00097660000003 417.0288086 L 252.0009766 417.0288086 z M 342.4804688 446.2788086 L 252.01953129999998 446.2788086 L 248.04882819999997 446.2788086 C 263.26074229999995 456.9868164 261.1367188 490.2592774 297.25000009999997 490.2592774 C 333.982422 490.2592774 334.00781259999997 455.0385743 346.45214849999996 446.2788086 L 342.4804688 446.2788086 L 342.4804688 446.2788086 z M 215.8125 428.2788086 C 217.6767578 428.2788086 219.1875 429.7895508 219.1875 431.6538086 C 219.1875 433.5180664 217.6767578 435.0288086 215.8125 435.0288086 C 213.9482422 435.0288086 212.4375 433.5180664 212.4375 431.6538086 C 212.4375 429.7895508 213.9482422 428.2788086 215.8125 428.2788086 L 215.8125 428.2788086 z M 378.6875 428.2788086 C 380.5517578 428.2788086 382.0625 429.7895508 382.0625 431.6538086 C 382.0625 433.5180664 380.5517578 435.0288086 378.6875 435.0288086 C 376.8232422 435.0288086 375.3125 433.5180664 375.3125 431.6538086 C 375.3125 429.7895508 376.8232422 428.2788086 378.6875 428.2788086 L 378.6875 428.2788086 z" stroke-linecap="round" />
</g>
</g>
</g>
<g transform="matrix(1.9211538461538462 0 0 1.9211538461538462 640.114308653846 514.2366426608398)" id="text-logo"  >
<g style=""  paint-order="stroke"   >
		<g transform="matrix(1 0 0 1 0 0)" id="text-logo-path-0"  >
<path style="stroke: none; stroke-width: 0; stroke-dasharray: none; stroke-linecap: butt; stroke-dashoffset: 0; stroke-linejoin: miter; stroke-miterlimit: 4; fill: rgb(54,83,89); fill-rule: nonzero; opacity: 1;"  paint-order="stroke"  transform=" translate(-138.30999999999997, 5.95)" d="M 1.92 -9.86 L 3.98 -9.86 L 3.98 -1.02 L 3.74 0 L 6.26 0 L 6.02 -1.02 L 6.02 -9.86 L 8.08 -9.86 L 9.15 -9.62 L 8.96 -10.44 L 8.59 -11.9 L 1.41 -11.9 L 1.04 -10.44 L 0.85 -9.62 Z M 13.12 -1.02 L 13.12 -4.93 L 16.1 -4.93 L 16.1 -1.02 L 15.86 0 L 18.38 0 L 18.14 -1.02 L 18.14 -10.88 L 18.38 -11.9 L 15.86 -11.9 L 16.1 -10.88 L 16.1 -6.97 L 13.12 -6.97 L 13.12 -10.88 L 13.36 -11.9 L 10.85 -11.9 L 11.08 -10.88 L 11.08 -1.02 L 10.85 0 L 13.36 0 Z M 25.84 -2.04 L 22.36 -2.04 L 22.36 -4.93 L 24.14 -4.93 L 25.16 -4.69 L 25.16 -7.21 L 24.14 -6.97 L 22.36 -6.97 L 22.36 -9.86 L 25.84 -9.86 L 26.91 -9.62 L 26.72 -10.44 L 26.35 -11.9 L 20.08 -11.9 L 20.32 -10.88 L 20.32 -1.02 L 20.08 0 L 26.35 0 L 26.72 -1.46 L 26.91 -2.28 Z M 34.31 0 L 36.43 0 L 38.73 -2.3 L 39.07 -2.72 L 39.07 -4.42 L 37.62 -4.54 L 36.79 -4.59 L 37.03 -3.57 L 37.03 -3.15 L 35.92 -2.04 L 35.16 -2.04 L 34.05 -3.15 L 34.05 -8.76 L 35.16 -9.86 L 35.92 -9.86 L 37.03 -8.76 L 37.03 -8.67 L 36.79 -7.63 L 39.07 -7.82 L 39.07 -9.61 L 36.77 -11.9 L 34.31 -11.9 L 32.01 -9.61 L 32.01 -2.3 Z M 45.78 -3.15 L 44.68 -2.04 L 43.91 -2.04 L 42.81 -3.15 L 42.81 -8.76 L 43.91 -9.86 L 44.68 -9.86 L 45.78 -8.76 Z M 40.77 -2.3 L 43.06 0 L 45.53 0 L 47.82 -2.3 L 47.82 -9.61 L 45.53 -11.9 L 43.06 -11.9 L 40.77 -9.61 Z M 51.8 -1.02 L 51.8 -8.76 L 52.9 -9.86 L 53.67 -9.86 L 54.77 -8.76 L 54.77 -1.02 L 54.54 0 L 57.05 0 L 56.81 -1.02 L 56.81 -9.61 L 54.52 -11.9 L 52.05 -11.9 L 49.76 -9.61 L 49.76 -1.02 L 49.52 0 L 52.04 0 Z M 61.39 0 L 63.51 0 L 65.81 -2.3 L 65.81 -4.85 L 60.79 -8.08 L 60.79 -8.76 L 61.9 -9.86 L 62.66 -9.86 L 63.77 -8.76 L 63.77 -8.67 L 63.53 -7.65 L 64.36 -7.7 L 65.81 -7.82 L 65.81 -9.61 L 63.17 -11.9 L 61.05 -11.9 L 58.75 -9.61 L 58.75 -7.06 L 63.77 -3.83 L 63.77 -3.15 L 62.66 -2.04 L 61.9 -2.04 L 60.79 -3.15 L 60.79 -3.23 L 61.03 -4.25 L 60.2 -4.2 L 58.75 -4.08 L 58.75 -2.3 Z M 68.58 -9.86 L 70.64 -9.86 L 70.64 -1.02 L 70.4 0 L 72.91 0 L 72.68 -1.02 L 72.68 -9.86 L 74.73 -9.86 L 75.8 -9.62 L 75.62 -10.44 L 75.24 -11.9 L 68.07 -11.9 L 67.69 -10.44 L 67.51 -9.62 Z M 79.78 -1.02 L 79.78 -10.88 L 80.02 -11.9 L 77.5 -11.9 L 77.74 -10.88 L 77.74 -1.02 L 77.5 0 L 80.02 0 Z M 82.79 -9.86 L 84.85 -9.86 L 84.85 -1.02 L 84.61 0 L 87.13 0 L 86.89 -1.02 L 86.89 -9.86 L 88.94 -9.86 L 90.02 -9.62 L 89.83 -10.44 L 89.45 -11.9 L 82.28 -11.9 L 81.91 -10.44 L 81.72 -9.62 Z M 96.97 -10.88 L 96.97 -3.15 L 95.86 -2.04 L 95.1 -2.04 L 93.99 -3.15 L 93.99 -10.88 L 94.23 -11.9 L 91.71 -11.9 L 91.95 -10.88 L 91.95 -2.3 L 94.25 0 L 96.71 0 L 97.36 -0.65 L 97.99 0 L 99.25 0 L 99.01 -1.02 L 99.01 -10.88 L 99.25 -11.9 L 96.73 -11.9 Z M 102.02 -9.86 L 104.07 -9.86 L 104.07 -1.02 L 103.84 0 L 106.35 0 L 106.11 -1.02 L 106.11 -9.86 L 108.17 -9.86 L 109.24 -9.62 L 109.05 -10.44 L 108.68 -11.9 L 101.51 -11.9 L 101.13 -10.44 L 100.95 -9.62 Z M 113.22 -1.02 L 113.22 -10.88 L 113.46 -11.9 L 110.94 -11.9 L 111.18 -10.88 L 111.18 -1.02 L 110.94 0 L 113.46 0 Z M 120.17 -3.15 L 119.07 -2.04 L 118.3 -2.04 L 117.2 -3.15 L 117.2 -8.76 L 118.3 -9.86 L 119.07 -9.86 L 120.17 -8.76 Z M 115.16 -2.3 L 117.45 0 L 119.92 0 L 122.21 -2.3 L 122.21 -9.61 L 119.92 -11.9 L 117.45 -11.9 L 115.16 -9.61 Z M 126.19 -1.02 L 126.19 -8.76 L 127.3 -9.86 L 128.06 -9.86 L 129.17 -8.76 L 129.17 -1.02 L 128.93 0 L 131.44 0 L 131.21 -1.02 L 131.21 -9.61 L 128.91 -11.9 L 126.45 -11.9 L 124.15 -9.61 L 124.15 -1.02 L 123.91 0 L 126.43 0 Z M 133.14 0 L 135.66 0 L 135.42 -1.02 L 135.42 -3.38 L 138.4 -3.38 L 138.4 -1.02 L 138.16 0 L 140.67 0 L 140.44 -1.02 L 140.44 -9.61 L 138.14 -11.9 L 135.68 -11.9 L 133.38 -9.61 L 133.38 -1.02 Z M 135.42 -5.42 L 135.42 -8.76 L 136.53 -9.86 L 137.29 -9.86 L 138.4 -8.76 L 138.4 -5.42 Z M 148.14 -2.04 L 144.65 -2.04 L 144.65 -10.88 L 144.89 -11.9 L 142.37 -11.9 L 142.61 -10.88 L 142.61 -1.02 L 142.37 0 L 148.65 0 L 149.02 -1.46 L 149.21 -2.28 Z M 159.32 -3.15 L 158.22 -2.04 L 157.45 -2.04 L 156.35 -3.15 L 156.35 -8.76 L 157.45 -9.86 L 158.22 -9.86 L 159.32 -8.76 Z M 154.31 -2.3 L 156.6 0 L 159.07 0 L 161.36 -2.3 L 161.36 -9.61 L 159.07 -11.9 L 156.6 -11.9 L 154.31 -9.61 Z M 165.34 -1.02 L 165.34 -4.42 L 166.63 -4.42 L 168.16 -0.94 L 168.33 0 L 171.02 0 L 170.37 -0.94 L 168.61 -4.96 L 170.36 -6.72 L 170.36 -9.61 L 168.06 -11.9 L 163.06 -11.9 L 163.3 -10.88 L 163.3 -1.02 L 163.06 0 L 165.58 0 Z M 165.34 -6.46 L 165.34 -9.86 L 167.21 -9.86 L 168.32 -8.76 L 168.32 -7.57 L 167.21 -6.46 Z M 172.72 0 L 177.72 0 L 180.01 -2.3 L 180.01 -9.61 L 177.72 -11.9 L 172.72 -11.9 L 172.96 -10.88 L 172.96 -1.02 Z M 175 -2.04 L 175 -9.86 L 176.87 -9.86 L 177.97 -8.76 L 177.97 -3.15 L 176.87 -2.04 Z M 187.48 -2.04 L 183.99 -2.04 L 183.99 -4.93 L 185.78 -4.93 L 186.8 -4.69 L 186.8 -7.21 L 185.78 -6.97 L 183.99 -6.97 L 183.99 -9.86 L 187.48 -9.86 L 188.55 -9.62 L 188.36 -10.44 L 187.99 -11.9 L 181.71 -11.9 L 181.95 -10.88 L 181.95 -1.02 L 181.71 0 L 187.99 0 L 188.36 -1.46 L 188.55 -2.28 Z M 192.52 -1.02 L 192.52 -4.42 L 193.82 -4.42 L 195.35 -0.94 L 195.52 0 L 198.2 0 L 197.56 -0.94 L 195.79 -4.96 L 197.54 -6.72 L 197.54 -9.61 L 195.24 -11.9 L 190.25 -11.9 L 190.48 -10.88 L 190.48 -1.02 L 190.25 0 L 192.76 0 Z M 192.52 -6.46 L 192.52 -9.86 L 194.39 -9.86 L 195.5 -8.76 L 195.5 -7.57 L 194.39 -6.46 Z M 205.58 -1.02 L 205.58 -10.88 L 205.82 -11.9 L 203.3 -11.9 L 203.54 -10.88 L 203.54 -1.02 L 203.3 0 L 205.82 0 Z M 209.8 -1.02 L 209.8 -8.76 L 210.9 -9.86 L 211.67 -9.86 L 212.77 -8.76 L 212.77 -1.02 L 212.53 0 L 215.05 0 L 214.81 -1.02 L 214.81 -9.61 L 212.52 -11.9 L 210.05 -11.9 L 207.76 -9.61 L 207.76 -1.02 L 207.52 0 L 210.03 0 Z M 219.38 0 L 221.51 0 L 223.8 -2.3 L 223.8 -4.85 L 218.79 -8.08 L 218.79 -8.76 L 219.89 -9.86 L 220.66 -9.86 L 221.76 -8.76 L 221.76 -8.67 L 221.53 -7.65 L 222.36 -7.7 L 223.8 -7.82 L 223.8 -9.61 L 221.17 -11.9 L 219.04 -11.9 L 216.75 -9.61 L 216.75 -7.06 L 221.76 -3.83 L 221.76 -3.15 L 220.66 -2.04 L 219.89 -2.04 L 218.79 -3.15 L 218.79 -3.23 L 219.03 -4.25 L 218.19 -4.2 L 216.75 -4.08 L 216.75 -2.3 Z M 226.58 -9.86 L 228.63 -9.86 L 228.63 -1.02 L 228.39 0 L 230.91 0 L 230.67 -1.02 L 230.67 -9.86 L 232.73 -9.86 L 233.8 -9.62 L 233.61 -10.44 L 233.24 -11.9 L 226.07 -11.9 L 225.69 -10.44 L 225.5 -9.62 Z M 237.78 -1.02 L 237.78 -10.88 L 238.02 -11.9 L 235.5 -11.9 L 235.74 -10.88 L 235.74 -1.02 L 235.5 0 L 238.02 0 Z M 240.79 -9.86 L 242.84 -9.86 L 242.84 -1.02 L 242.61 0 L 245.12 0 L 244.88 -1.02 L 244.88 -9.86 L 246.94 -9.86 L 248.01 -9.62 L 247.83 -10.44 L 247.45 -11.9 L 240.28 -11.9 L 239.9 -10.44 L 239.72 -9.62 Z M 254.97 -10.88 L 254.97 -3.15 L 253.86 -2.04 L 253.1 -2.04 L 251.99 -3.15 L 251.99 -10.88 L 252.23 -11.9 L 249.71 -11.9 L 249.95 -10.88 L 249.95 -2.3 L 252.25 0 L 254.71 0 L 255.36 -0.65 L 255.99 0 L 257.24 0 L 257.01 -1.02 L 257.01 -10.88 L 257.24 -11.9 L 254.73 -11.9 Z M 260.01 -9.86 L 262.07 -9.86 L 262.07 -1.02 L 261.83 0 L 264.35 0 L 264.11 -1.02 L 264.11 -9.86 L 266.17 -9.86 L 267.24 -9.62 L 267.05 -10.44 L 266.68 -11.9 L 259.5 -11.9 L 259.13 -10.44 L 258.94 -9.62 Z M 274.7 -2.04 L 271.22 -2.04 L 271.22 -4.93 L 273 -4.93 L 274.02 -4.69 L 274.02 -7.21 L 273 -6.97 L 271.22 -6.97 L 271.22 -9.86 L 274.7 -9.86 L 275.77 -9.62 L 275.59 -10.44 L 275.21 -11.9 L 268.94 -11.9 L 269.18 -10.88 L 269.18 -1.02 L 268.94 0 L 275.21 0 L 275.59 -1.46 L 275.77 -2.28 Z" stroke-linecap="round" />
</g>
</g>
</g>
<g transform="matrix(1.9211538461538462 0 0 1.9211538461538462 640.0389033653847 232.7051127048802)" id="tagline-5de32e77-2151-483b-88d3-7ca825945181-logo"  >
<g style=""  paint-order="stroke"   >
		<g transform="matrix(1 0 0 1 0 0)" id="tagline-5de32e77-2151-483b-88d3-7ca825945181-logo-path-0"  >
<path style="stroke: none; stroke-width: 0; stroke-dasharray: none; stroke-linecap: butt; stroke-dashoffset: 0; stroke-linejoin: miter; stroke-miterlimit: 4; fill: rgb(242,212,155); fill-rule: nonzero; opacity: 1;"  paint-order="stroke"  transform=" translate(-86.52, 9.45)" d="M 5.54 0 L 8.91 0 L 12.55 -3.65 L 12.55 -7.7 L 4.59 -12.82 L 4.59 -13.9 L 6.34 -15.66 L 7.56 -15.66 L 9.31 -13.9 L 9.31 -13.77 L 8.94 -12.15 L 10.26 -12.23 L 12.55 -12.42 L 12.55 -15.25 L 8.37 -18.9 L 5 -18.9 L 1.35 -15.25 L 1.35 -11.21 L 9.31 -6.08 L 9.31 -5 L 7.56 -3.24 L 6.34 -3.24 L 4.59 -5 L 4.59 -5.13 L 4.97 -6.75 L 3.65 -6.67 L 1.35 -6.48 L 1.35 -3.65 Z M 24.27 -1.62 L 24.27 -17.28 L 24.65 -18.9 L 20.66 -18.9 L 21.03 -17.28 L 21.03 -1.62 L 20.66 0 L 24.65 0 Z M 36.37 -1.62 L 36.37 -13.9 L 38.12 -15.66 L 39.34 -15.66 L 41.09 -13.9 L 41.09 -1.62 L 40.72 0 L 44.71 0 L 44.33 -1.62 L 44.33 -15.25 L 40.69 -18.9 L 36.77 -18.9 L 33.13 -15.25 L 33.13 -1.62 L 32.75 0 L 36.75 0 Z M 56.46 0 L 59.83 0 L 63.48 -3.65 L 64.02 -4.32 L 64.02 -7.02 L 61.72 -7.21 L 60.4 -7.29 L 60.78 -5.67 L 60.78 -5 L 59.02 -3.24 L 57.81 -3.24 L 56.05 -5 L 56.05 -13.9 L 57.81 -15.66 L 59.02 -15.66 L 60.78 -13.9 L 60.78 -13.77 L 60.4 -12.12 L 64.02 -12.42 L 64.02 -15.25 L 60.37 -18.9 L 56.46 -18.9 L 52.81 -15.25 L 52.81 -3.65 Z M 81.27 -3.24 L 75.73 -3.24 L 75.73 -7.83 L 78.57 -7.83 L 80.19 -7.45 L 80.19 -11.45 L 78.57 -11.07 L 75.73 -11.07 L 75.73 -15.66 L 81.27 -15.66 L 82.97 -15.28 L 82.67 -16.58 L 82.08 -18.9 L 72.12 -18.9 L 72.49 -17.28 L 72.49 -1.62 L 72.12 0 L 82.08 0 L 82.67 -2.32 L 82.97 -3.62 Z M 101.87 0 L 112.27 0 L 112.86 -2.32 L 113.16 -3.62 L 111.46 -3.24 L 105.11 -3.24 L 105.11 -5 L 113.08 -11.21 L 113.08 -15.25 L 109.43 -18.9 L 106.06 -18.9 L 101.87 -15.25 L 101.87 -12.69 L 104.17 -12.31 L 105.49 -12.15 L 105.11 -13.77 L 105.11 -13.9 L 106.87 -15.66 L 108.08 -15.66 L 109.84 -13.9 L 109.84 -12.82 L 101.87 -6.62 Z M 129.22 -5 L 127.47 -3.24 L 126.25 -3.24 L 124.5 -5 L 124.5 -13.9 L 126.25 -15.66 L 127.47 -15.66 L 129.22 -13.9 Z M 121.26 -3.65 L 124.9 0 L 128.82 0 L 132.46 -3.65 L 132.46 -15.25 L 128.82 -18.9 L 124.9 -18.9 L 121.26 -15.25 Z M 125.23 -9.48 L 126.87 -7.83 L 128.52 -9.48 L 126.87 -11.1 Z M 140.56 0 L 150.96 0 L 151.55 -2.32 L 151.85 -3.62 L 150.15 -3.24 L 143.8 -3.24 L 143.8 -5 L 151.77 -11.21 L 151.77 -15.25 L 148.12 -18.9 L 144.75 -18.9 L 140.56 -15.25 L 140.56 -12.69 L 142.86 -12.31 L 144.18 -12.15 L 143.8 -13.77 L 143.8 -13.9 L 145.56 -15.66 L 146.77 -15.66 L 148.53 -13.9 L 148.53 -12.82 L 140.56 -6.62 Z M 169.67 -1.62 L 169.67 -4.59 L 170.07 -4.59 L 171.69 -4.21 L 171.69 -8.21 L 170.07 -7.83 L 169.67 -7.83 L 169.67 -17.28 L 170.05 -18.9 L 166.05 -18.9 L 166.24 -18.14 L 159.95 -7.83 L 159.95 -4.59 L 166.43 -4.59 L 166.43 -1.62 L 166.05 0 L 170.05 0 Z M 163.19 -7.83 L 166.43 -13.15 L 166.43 -7.83 Z" stroke-linecap="round" />
</g>
</g>
</g>
<g transform="matrix(0.5419630124266479 1.8431245735850705 -1.8431245735850708 0.5419630124266479 350.78676765394385 606.2088836689923)" id="tagline-fcffefe3-726e-4ec3-8fbe-8f47e470a7f6-logo-0"  >
<g style=""  paint-order="stroke"   >
		<g transform="matrix(1 0 0 1 0 0)" id="tagline-fcffefe3-726e-4ec3-8fbe-8f47e470a7f6-logo-0-path-0"  >
<path style="stroke: none; stroke-width: 0; stroke-dasharray: none; stroke-linecap: butt; stroke-dashoffset: 0; stroke-linejoin: miter; stroke-miterlimit: 4; fill: rgb(242,212,155); fill-rule: nonzero; opacity: 1;"  paint-order="stroke"  transform=" translate(-4.95, 6.300000000000001)" d="M 3.04 0.27 L 1.08 -1.69 L 1.08 -10.91 L 3.04 -12.87 L 5.96 -12.87 L 6.48 -12.35 L 6.48 -12.87 L 8.82 -12.87 L 8.82 -9.09 L 6.48 -9.09 L 6.48 -10.53 L 3.42 -10.53 L 3.42 -2.07 L 6.48 -2.07 L 6.48 -3.87 L 8.82 -3.87 L 8.82 -1.69 L 6.86 0.27 Z M 0.9 -1.62 L 2.97 0.45 L 6.93 0.45 L 9 -1.62 L 9 -4.05 L 6.3 -4.05 L 6.3 -2.25 L 3.6 -2.25 L 3.6 -10.35 L 6.3 -10.35 L 6.3 -8.91 L 9 -8.91 L 9 -13.05 L 6.3 -13.05 L 6.3 -12.78 L 6.03 -13.05 L 2.97 -13.05 L 0.9 -10.98 Z M 1.35 -1.8 L 3.15 0 L 6.75 0 L 8.55 -1.8 L 8.55 -3.6 L 6.75 -3.6 L 6.75 -1.8 L 3.15 -1.8 L 3.15 -10.8 L 6.75 -10.8 L 6.75 -9.36 L 8.55 -9.36 L 8.55 -12.6 L 6.75 -12.6 L 6.75 -11.7 L 5.85 -12.6 L 3.15 -12.6 L 1.35 -10.8 Z" stroke-linecap="round" />
</g>
</g>
</g>
<g transform="matrix(0.6620255827913051 1.8034839140734107 -1.8034839140734107 0.6620255827913051 357.00662711495227 625.0493876638722)" id="tagline-fcffefe3-726e-4ec3-8fbe-8f47e470a7f6-logo-1"  >
<g style=""  paint-order="stroke"   >
		<g transform="matrix(1 0 0 1 0 0)" id="tagline-fcffefe3-726e-4ec3-8fbe-8f47e470a7f6-logo-1-path-0"  >
<path style="stroke: none; stroke-width: 0; stroke-dasharray: none; stroke-linecap: butt; stroke-dashoffset: 0; stroke-linejoin: miter; stroke-miterlimit: 4; fill: rgb(242,212,155); fill-rule: nonzero; opacity: 1;"  paint-order="stroke"  transform=" translate(-4.95, 6.300000000000001)" d="M 3.04 0.27 L 1.08 -1.69 L 1.08 -10.91 L 3.04 -12.87 L 6.86 -12.87 L 8.82 -10.91 L 8.82 -1.69 L 6.86 0.27 Z M 0.9 -1.62 L 2.97 0.45 L 6.93 0.45 L 9 -1.62 L 9 -10.98 L 6.93 -13.05 L 2.97 -13.05 L 0.9 -10.98 Z M 1.35 -1.8 L 3.15 0 L 6.75 0 L 8.55 -1.8 L 8.55 -10.8 L 6.75 -12.6 L 3.15 -12.6 L 1.35 -10.8 Z M 3.15 -1.8 L 3.15 -10.8 L 6.75 -10.8 L 6.75 -1.8 Z M 3.42 -2.07 L 6.48 -2.07 L 6.48 -10.53 L 3.42 -10.53 Z M 3.6 -2.25 L 3.6 -10.35 L 6.3 -10.35 L 6.3 -2.25 Z" stroke-linecap="round" />
</g>
</g>
</g>
<g transform="matrix(0.7856490593797902 1.753165039603336 -1.753165039603336 0.7856490593797902 364.88626121913484 644.4557147537174)" id="tagline-fcffefe3-726e-4ec3-8fbe-8f47e470a7f6-logo-2"  >
<g style=""  paint-order="stroke"   >
		<g transform="matrix(1 0 0 1 0 0)" id="tagline-fcffefe3-726e-4ec3-8fbe-8f47e470a7f6-logo-2-path-0"  >
<path style="stroke: none; stroke-width: 0; stroke-dasharray: none; stroke-linecap: butt; stroke-dashoffset: 0; stroke-linejoin: miter; stroke-miterlimit: 4; fill: rgb(242,212,155); fill-rule: nonzero; opacity: 1;"  paint-order="stroke"  transform=" translate(-5.49, 6.29)" d="M 1.08 0.27 L 1.08 -2.07 L 1.62 -2.07 L 1.62 -10.51 L 1.08 -10.51 L 1.08 -12.85 L 3.87 -12.85 L 7.02 -5.51 L 7.02 -10.51 L 6.48 -10.51 L 6.48 -12.85 L 9.9 -12.85 L 9.9 -10.51 L 9.36 -10.51 L 9.36 -2.07 L 9.9 -2.07 L 9.9 0.27 L 7.11 0.27 L 3.96 -7.07 L 3.96 -2.07 L 4.5 -2.07 L 4.5 0.27 Z M 0.9 0.45 L 4.68 0.45 L 4.68 -2.25 L 4.14 -2.25 L 4.14 -6.21 L 7 0.45 L 10.08 0.45 L 10.08 -2.25 L 9.54 -2.25 L 9.54 -10.33 L 10.08 -10.33 L 10.08 -13.03 L 6.3 -13.03 L 6.3 -10.33 L 6.84 -10.33 L 6.84 -6.37 L 3.98 -13.03 L 0.9 -13.03 L 0.9 -10.33 L 1.44 -10.33 L 1.44 -2.25 L 0.9 -2.25 Z M 1.35 0 L 4.23 0 L 4.23 -1.8 L 3.69 -1.8 L 3.69 -8.39 L 7.29 0 L 9.63 0 L 9.63 -1.8 L 9.09 -1.8 L 9.09 -10.78 L 9.63 -10.78 L 9.63 -12.58 L 6.75 -12.58 L 6.75 -10.78 L 7.29 -10.78 L 7.29 -4.19 L 3.69 -12.58 L 1.35 -12.58 L 1.35 -10.78 L 1.89 -10.78 L 1.89 -1.8 L 1.35 -1.8 Z" stroke-linecap="round" />
</g>
</g>
</g>
<g transform="matrix(0.9054803981445632 1.6943840618843415 -1.6943840618843418 0.9054803981445633 374.126165637879 663.2510363010658)" id="tagline-fcffefe3-726e-4ec3-8fbe-8f47e470a7f6-logo-3"  >
<g style=""  paint-order="stroke"   >
		<g transform="matrix(1 0 0 1 0 0)" id="tagline-fcffefe3-726e-4ec3-8fbe-8f47e470a7f6-logo-3-path-0"  >
<path style="stroke: none; stroke-width: 0; stroke-dasharray: none; stroke-linecap: butt; stroke-dashoffset: 0; stroke-linejoin: miter; stroke-miterlimit: 4; fill: rgb(242,212,155); fill-rule: nonzero; opacity: 1;"  paint-order="stroke"  transform=" translate(-4.95, 6.300000000000001)" d="M 3.04 0.27 L 1.08 -1.69 L 1.08 -10.91 L 3.04 -12.87 L 5.96 -12.87 L 6.48 -12.35 L 6.48 -12.87 L 8.82 -12.87 L 8.82 -9.09 L 6.48 -9.09 L 6.48 -10.53 L 3.42 -10.53 L 3.42 -2.07 L 6.48 -2.07 L 6.48 -3.87 L 8.82 -3.87 L 8.82 -1.69 L 6.86 0.27 Z M 0.9 -1.62 L 2.97 0.45 L 6.93 0.45 L 9 -1.62 L 9 -4.05 L 6.3 -4.05 L 6.3 -2.25 L 3.6 -2.25 L 3.6 -10.35 L 6.3 -10.35 L 6.3 -8.91 L 9 -8.91 L 9 -13.05 L 6.3 -13.05 L 6.3 -12.78 L 6.03 -13.05 L 2.97 -13.05 L 0.9 -10.98 Z M 1.35 -1.8 L 3.15 0 L 6.75 0 L 8.55 -1.8 L 8.55 -3.6 L 6.75 -3.6 L 6.75 -1.8 L 3.15 -1.8 L 3.15 -10.8 L 6.75 -10.8 L 6.75 -9.36 L 8.55 -9.36 L 8.55 -12.6 L 6.75 -12.6 L 6.75 -11.7 L 5.85 -12.6 L 3.15 -12.6 L 1.35 -10.8 Z" stroke-linecap="round" />
</g>
</g>
</g>
<g transform="matrix(1.0129791139725033 1.6323925432466293 -1.6323925432466295 1.0129791139725033 383.85454961397704 680.1205755081851)" id="tagline-fcffefe3-726e-4ec3-8fbe-8f47e470a7f6-logo-4"  >
<g style=""  paint-order="stroke"   >
		<g transform="matrix(1 0 0 1 0 0)" id="tagline-fcffefe3-726e-4ec3-8fbe-8f47e470a7f6-logo-4-path-0"  >
<path style="stroke: none; stroke-width: 0; stroke-dasharray: none; stroke-linecap: butt; stroke-dashoffset: 0; stroke-linejoin: miter; stroke-miterlimit: 4; fill: rgb(242,212,155); fill-rule: nonzero; opacity: 1;"  paint-order="stroke"  transform=" translate(-4.7700000000000005, 6.300000000000001)" d="M 1.08 0.27 L 1.08 -2.07 L 1.62 -2.07 L 1.62 -10.53 L 1.08 -10.53 L 1.08 -12.87 L 8.46 -12.87 L 8.46 -9.72 L 6.12 -9.72 L 6.12 -10.53 L 3.96 -10.53 L 3.96 -7.47 L 6.66 -7.47 L 6.66 -5.13 L 3.96 -5.13 L 3.96 -2.07 L 6.12 -2.07 L 6.12 -2.88 L 8.46 -2.88 L 8.46 0.27 Z M 0.9 0.45 L 8.64 0.45 L 8.64 -3.06 L 5.94 -3.06 L 5.94 -2.25 L 4.14 -2.25 L 4.14 -4.95 L 6.84 -4.95 L 6.84 -7.65 L 4.14 -7.65 L 4.14 -10.35 L 5.94 -10.35 L 5.94 -9.54 L 8.64 -9.54 L 8.64 -13.05 L 0.9 -13.05 L 0.9 -10.35 L 1.44 -10.35 L 1.44 -2.25 L 0.9 -2.25 Z M 1.35 0 L 8.19 0 L 8.19 -2.61 L 6.39 -2.61 L 6.39 -1.8 L 3.69 -1.8 L 3.69 -5.4 L 6.39 -5.4 L 6.39 -7.2 L 3.69 -7.2 L 3.69 -10.8 L 6.39 -10.8 L 6.39 -9.99 L 8.19 -9.99 L 8.19 -12.6 L 1.35 -12.6 L 1.35 -10.8 L 1.89 -10.8 L 1.89 -1.8 L 1.35 -1.8 Z" stroke-linecap="round" />
</g>
</g>
</g>
<g transform="matrix(1.093218097907944 1.5797804565819433 -1.5797804565819435 1.093218097907944 392.0934876908825 692.7190015516958)" id="tagline-fcffefe3-726e-4ec3-8fbe-8f47e470a7f6-logo-5"  >
<g style=""  paint-order="stroke"   >
		<g transform="matrix(1 0 0 1 0 0)" id="tagline-fcffefe3-726e-4ec3-8fbe-8f47e470a7f6-logo-5-path-0"  >
<path style="stroke: none; stroke-width: 0; stroke-dasharray: none; stroke-linecap: butt; stroke-dashoffset: 0; stroke-linejoin: miter; stroke-miterlimit: 4; fill: rgb(242,212,155); fill-rule: nonzero; opacity: 1;"  paint-order="stroke"  transform=" translate(-2.79, 6.29)" d="M 1.08 0.27 L 1.08 -2.07 L 1.62 -2.07 L 1.62 -10.51 L 1.08 -10.51 L 1.08 -12.85 L 4.5 -12.85 L 4.5 -10.51 L 3.96 -10.51 L 3.96 -2.07 L 4.5 -2.07 L 4.5 0.27 Z M 0.9 0.45 L 4.68 0.45 L 4.68 -2.25 L 4.14 -2.25 L 4.14 -10.33 L 4.68 -10.33 L 4.68 -13.03 L 0.9 -13.03 L 0.9 -10.33 L 1.44 -10.33 L 1.44 -2.25 L 0.9 -2.25 Z M 1.35 0 L 4.23 0 L 4.23 -1.8 L 3.69 -1.8 L 3.69 -10.78 L 4.23 -10.78 L 4.23 -12.58 L 1.35 -12.58 L 1.35 -10.78 L 1.89 -10.78 L 1.89 -1.8 L 1.35 -1.8 Z" stroke-linecap="round" />
</g>
</g>
</g>
<g transform="matrix(1.1790835188029718 1.516770963685328 -1.516770963685328 1.1790835188029718 401.9828549262302 706.1945795039652)" id="tagline-fcffefe3-726e-4ec3-8fbe-8f47e470a7f6-logo-6"  >
<g style=""  paint-order="stroke"   >
		<g transform="matrix(0.9999999999999999 0 0 1 0 0)" id="tagline-fcffefe3-726e-4ec3-8fbe-8f47e470a7f6-logo-6-path-0"  >
<path style="stroke: none; stroke-width: 0; stroke-dasharray: none; stroke-linecap: butt; stroke-dashoffset: 0; stroke-linejoin: miter; stroke-miterlimit: 4; fill: rgb(242,212,155); fill-rule: nonzero; opacity: 1;"  paint-order="stroke"  transform=" translate(-5.58, 6.29)" d="M 3.6 0.27 L 3.6 -2.07 L 3.91 -2.07 L 1.84 -10.51 L 1.08 -10.51 L 1.08 -12.85 L 4.5 -12.85 L 4.5 -10.51 L 4.19 -10.51 L 5.58 -4.81 L 6.97 -10.51 L 6.66 -10.51 L 6.66 -12.85 L 10.08 -12.85 L 10.08 -10.51 L 9.32 -10.51 L 7.25 -2.07 L 7.56 -2.07 L 7.56 0.27 Z M 0.9 -10.33 L 1.69 -10.33 L 3.69 -2.25 L 3.42 -2.25 L 3.42 0.45 L 7.74 0.45 L 7.74 -2.25 L 7.47 -2.25 L 9.47 -10.33 L 10.26 -10.33 L 10.26 -13.03 L 6.48 -13.03 L 6.48 -10.33 L 6.75 -10.33 L 5.58 -5.56 L 4.41 -10.33 L 4.68 -10.33 L 4.68 -13.03 L 0.9 -13.03 Z M 1.35 -10.78 L 2.05 -10.78 L 4.25 -1.8 L 3.87 -1.8 L 3.87 0 L 7.29 0 L 7.29 -1.8 L 6.91 -1.8 L 9.11 -10.78 L 9.81 -10.78 L 9.81 -12.58 L 6.93 -12.58 L 6.93 -10.78 L 7.31 -10.78 L 5.58 -3.69 L 3.85 -10.78 L 4.23 -10.78 L 4.23 -12.58 L 1.35 -12.58 Z" stroke-linecap="round" />
</g>
</g>
</g>
<g transform="matrix(1.2613252519672087 1.44909996526864 -1.44909996526864 1.2613252519672087 412.59986034059557 719.1005036921589)" id="tagline-fcffefe3-726e-4ec3-8fbe-8f47e470a7f6-logo-7"  >
<g style=""  paint-order="stroke"   >
		<g transform="matrix(1 0 0 1 0 0)" id="tagline-fcffefe3-726e-4ec3-8fbe-8f47e470a7f6-logo-7-path-0"  >
<path style="stroke: none; stroke-width: 0; stroke-dasharray: none; stroke-linecap: butt; stroke-dashoffset: 0; stroke-linejoin: miter; stroke-miterlimit: 4; fill: rgb(242,212,155); fill-rule: nonzero; opacity: 1;"  paint-order="stroke"  transform=" translate(-2.79, 6.29)" d="M 1.08 0.27 L 1.08 -2.07 L 1.62 -2.07 L 1.62 -10.51 L 1.08 -10.51 L 1.08 -12.85 L 4.5 -12.85 L 4.5 -10.51 L 3.96 -10.51 L 3.96 -2.07 L 4.5 -2.07 L 4.5 0.27 Z M 0.9 0.45 L 4.68 0.45 L 4.68 -2.25 L 4.14 -2.25 L 4.14 -10.33 L 4.68 -10.33 L 4.68 -13.03 L 0.9 -13.03 L 0.9 -10.33 L 1.44 -10.33 L 1.44 -2.25 L 0.9 -2.25 Z M 1.35 0 L 4.23 0 L 4.23 -1.8 L 3.69 -1.8 L 3.69 -10.78 L 4.23 -10.78 L 4.23 -12.58 L 1.35 -12.58 L 1.35 -10.78 L 1.89 -10.78 L 1.89 -1.8 L 1.35 -1.8 Z" stroke-linecap="round" />
</g>
</g>
</g>
<g transform="matrix(1.3388494811241984 1.3777932237767683 -1.3777932237767685 1.3388494811241984 423.7907692755452 731.2654590033017)" id="tagline-fcffefe3-726e-4ec3-8fbe-8f47e470a7f6-logo-8"  >
<g style=""  paint-order="stroke"   >
		<g transform="matrix(0.9999999999999999 0 0 1 0 0)" id="tagline-fcffefe3-726e-4ec3-8fbe-8f47e470a7f6-logo-8-path-0"  >
<path style="stroke: none; stroke-width: 0; stroke-dasharray: none; stroke-linecap: butt; stroke-dashoffset: 0; stroke-linejoin: miter; stroke-miterlimit: 4; fill: rgb(242,212,155); fill-rule: nonzero; opacity: 1;"  paint-order="stroke"  transform=" translate(-5.49, 6.29)" d="M 1.08 0.27 L 1.08 -2.07 L 1.62 -2.07 L 1.62 -10.51 L 1.08 -10.51 L 1.08 -12.85 L 3.87 -12.85 L 7.02 -5.51 L 7.02 -10.51 L 6.48 -10.51 L 6.48 -12.85 L 9.9 -12.85 L 9.9 -10.51 L 9.36 -10.51 L 9.36 -2.07 L 9.9 -2.07 L 9.9 0.27 L 7.11 0.27 L 3.96 -7.07 L 3.96 -2.07 L 4.5 -2.07 L 4.5 0.27 Z M 0.9 0.45 L 4.68 0.45 L 4.68 -2.25 L 4.14 -2.25 L 4.14 -6.21 L 7 0.45 L 10.08 0.45 L 10.08 -2.25 L 9.54 -2.25 L 9.54 -10.33 L 10.08 -10.33 L 10.08 -13.03 L 6.3 -13.03 L 6.3 -10.33 L 6.84 -10.33 L 6.84 -6.37 L 3.98 -13.03 L 0.9 -13.03 L 0.9 -10.33 L 1.44 -10.33 L 1.44 -2.25 L 0.9 -2.25 Z M 1.35 0 L 4.23 0 L 4.23 -1.8 L 3.69 -1.8 L 3.69 -8.39 L 7.29 0 L 9.63 0 L 9.63 -1.8 L 9.09 -1.8 L 9.09 -10.78 L 9.63 -10.78 L 9.63 -12.58 L 6.75 -12.58 L 6.75 -10.78 L 7.29 -10.78 L 7.29 -4.19 L 3.69 -12.58 L 1.35 -12.58 L 1.35 -10.78 L 1.89 -10.78 L 1.89 -1.8 L 1.35 -1.8 Z" stroke-linecap="round" />
</g>
</g>
</g>
<g transform="matrix(1.431282567862808 1.2815078273361278 -1.281507827336128 1.431282567862808 438.9123894698722 745.7566876443758)" id="tagline-fcffefe3-726e-4ec3-8fbe-8f47e470a7f6-logo-9"  >
<g style=""  paint-order="stroke"   >
		<g transform="matrix(1 0 0 1 0 0)" id="tagline-fcffefe3-726e-4ec3-8fbe-8f47e470a7f6-logo-9-path-0"  >
<path style="stroke: none; stroke-width: 0; stroke-dasharray: none; stroke-linecap: butt; stroke-dashoffset: 0; stroke-linejoin: miter; stroke-miterlimit: 4; fill: rgb(242,212,155); fill-rule: nonzero; opacity: 1;"  paint-order="stroke"  transform=" translate(-4.95, 6.300000000000001)" d="M 3.04 0.27 L 1.08 -1.69 L 1.08 -10.91 L 3.04 -12.87 L 5.96 -12.87 L 6.48 -12.35 L 6.48 -12.87 L 8.82 -12.87 L 8.82 -9.09 L 6.48 -9.09 L 6.48 -10.53 L 3.42 -10.53 L 3.42 -2.07 L 6.48 -2.07 L 6.48 -4.23 L 4.68 -4.23 L 4.68 -6.57 L 8.82 -6.57 L 8.82 -1.69 L 6.86 0.27 Z M 0.9 -1.62 L 2.97 0.45 L 6.93 0.45 L 9 -1.62 L 9 -6.75 L 4.5 -6.75 L 4.5 -4.05 L 6.3 -4.05 L 6.3 -2.25 L 3.6 -2.25 L 3.6 -10.35 L 6.3 -10.35 L 6.3 -8.91 L 9 -8.91 L 9 -13.05 L 6.3 -13.05 L 6.3 -12.78 L 6.03 -13.05 L 2.97 -13.05 L 0.9 -10.98 Z M 1.35 -1.8 L 3.15 0 L 6.75 0 L 8.55 -1.8 L 8.55 -6.3 L 4.95 -6.3 L 4.95 -4.5 L 6.75 -4.5 L 6.75 -1.8 L 3.15 -1.8 L 3.15 -10.8 L 6.75 -10.8 L 6.75 -9.36 L 8.55 -9.36 L 8.55 -12.6 L 6.75 -12.6 L 6.75 -11.7 L 5.85 -12.6 L 3.15 -12.6 L 1.35 -10.8 Z" stroke-linecap="round" />
</g>
</g>
</g>
<g transform="matrix(0.77968676171085 0.6261697482415196 -0.6261697482415196 0.77968676171085 225.25758277719467 394.00266069708834)" id="tagline-fcffefe3-726e-4ec3-8fbe-8f47e470a7f6-logo-10"  >
<g style=""  paint-order="stroke"   >
		<g transform="matrix(1 0 0 1 0 0)" id="tagline-fcffefe3-726e-4ec3-8fbe-8f47e470a7f6-logo-10-path-0"  >
<path style="stroke: none; stroke-width: 0; stroke-dasharray: none; stroke-linecap: butt; stroke-dashoffset: 0; stroke-linejoin: miter; stroke-miterlimit: 4; fill: rgb(242,212,155); fill-rule: nonzero; opacity: 1;"  paint-order="stroke"  transform=" translate(0, 0)" d="" stroke-linecap="round" />
</g>
</g>
</g>
<g transform="matrix(1.5649866391138392 1.1142930135233222 -1.1142930135233222 1.5649866391138392 465.141313615905 766.7517589989446)" id="tagline-fcffefe3-726e-4ec3-8fbe-8f47e470a7f6-logo-11"  >
<g style=""  paint-order="stroke"   >
		<g transform="matrix(1 0 0 1 0 0)" id="tagline-fcffefe3-726e-4ec3-8fbe-8f47e470a7f6-logo-11-path-0"  >
<path style="stroke: none; stroke-width: 0; stroke-dasharray: none; stroke-linecap: butt; stroke-dashoffset: 0; stroke-linejoin: miter; stroke-miterlimit: 4; fill: rgb(242,212,155); fill-rule: nonzero; opacity: 1;"  paint-order="stroke"  transform=" translate(-5.58, 6.29)" d="M 1.08 0.27 L 1.08 -2.07 L 1.84 -2.07 L 3.91 -10.51 L 3.6 -10.51 L 3.6 -12.85 L 7.56 -12.85 L 7.56 -10.51 L 7.25 -10.51 L 9.32 -2.07 L 10.08 -2.07 L 10.08 0.27 L 6.66 0.27 L 6.66 -2.07 L 6.97 -2.07 L 6.66 -3.33 L 4.5 -3.33 L 4.19 -2.07 L 4.5 -2.07 L 4.5 0.27 Z M 0.9 0.45 L 4.68 0.45 L 4.68 -2.25 L 4.41 -2.25 L 4.64 -3.15 L 6.52 -3.15 L 6.75 -2.25 L 6.48 -2.25 L 6.48 0.45 L 10.26 0.45 L 10.26 -2.25 L 9.47 -2.25 L 7.47 -10.33 L 7.74 -10.33 L 7.74 -13.03 L 3.42 -13.03 L 3.42 -10.33 L 3.69 -10.33 L 1.69 -2.25 L 0.9 -2.25 Z M 1.35 0 L 4.23 0 L 4.23 -1.8 L 3.85 -1.8 L 4.28 -3.6 L 6.88 -3.6 L 7.31 -1.8 L 6.93 -1.8 L 6.93 0 L 9.81 0 L 9.81 -1.8 L 9.11 -1.8 L 6.91 -10.78 L 7.29 -10.78 L 7.29 -12.58 L 3.87 -12.58 L 3.87 -10.78 L 4.25 -10.78 L 2.05 -1.8 L 1.35 -1.8 Z M 4.73 -5.4 L 5.58 -8.89 L 6.43 -5.4 Z M 5.08 -5.67 L 6.08 -5.67 L 5.58 -7.78 Z M 5.29 -5.85 L 5.58 -7.02 L 5.87 -5.85 Z" stroke-linecap="round" />
</g>
</g>
</g>
<g transform="matrix(0.8467996455703172 0.5319119854468267 -0.5319119854468267 0.8467996455703172 240.8518148155805 404.65930184495244)" id="tagline-fcffefe3-726e-4ec3-8fbe-8f47e470a7f6-logo-12"  >
<g style=""  paint-order="stroke"   >
		<g transform="matrix(1 0 0 1 0 0)" id="tagline-fcffefe3-726e-4ec3-8fbe-8f47e470a7f6-logo-12-path-0"  >
<path style="stroke: none; stroke-width: 0; stroke-dasharray: none; stroke-linecap: butt; stroke-dashoffset: 0; stroke-linejoin: miter; stroke-miterlimit: 4; fill: rgb(242,212,155); fill-rule: nonzero; opacity: 1;"  paint-order="stroke"  transform=" translate(0, 0)" d="" stroke-linecap="round" />
</g>
</g>
</g>
<g transform="matrix(1.7020901313712609 0.8909103688252148 -0.8909103688252149 1.702090131371261 500.19417397034744 788.2654748104426)" id="tagline-fcffefe3-726e-4ec3-8fbe-8f47e470a7f6-logo-13"  >
<g style=""  paint-order="stroke"   >
		<g transform="matrix(1 0 0 1 0 0)" id="tagline-fcffefe3-726e-4ec3-8fbe-8f47e470a7f6-logo-13-path-0"  >
<path style="stroke: none; stroke-width: 0; stroke-dasharray: none; stroke-linecap: butt; stroke-dashoffset: 0; stroke-linejoin: miter; stroke-miterlimit: 4; fill: rgb(242,212,155); fill-rule: nonzero; opacity: 1;"  paint-order="stroke"  transform=" translate(-8.639999999999999, 6.29)" d="M 3.6 0.27 L 3.6 -2.07 L 3.91 -2.07 L 1.84 -10.51 L 1.08 -10.51 L 1.08 -12.85 L 4.5 -12.85 L 4.5 -10.51 L 4.19 -10.51 L 5.58 -4.81 L 6.97 -10.51 L 6.66 -10.51 L 6.66 -12.85 L 10.62 -12.85 L 10.62 -10.51 L 10.31 -10.51 L 11.7 -4.81 L 13.09 -10.51 L 12.78 -10.51 L 12.78 -12.85 L 16.2 -12.85 L 16.2 -10.51 L 15.44 -10.51 L 13.37 -2.07 L 13.68 -2.07 L 13.68 0.27 L 9.72 0.27 L 9.72 -2.07 L 10.03 -2.07 L 8.64 -7.78 L 7.25 -2.07 L 7.56 -2.07 L 7.56 0.27 Z M 0.9 -10.33 L 1.69 -10.33 L 3.69 -2.25 L 3.42 -2.25 L 3.42 0.45 L 7.74 0.45 L 7.74 -2.25 L 7.47 -2.25 L 8.64 -7.02 L 9.81 -2.25 L 9.54 -2.25 L 9.54 0.45 L 13.86 0.45 L 13.86 -2.25 L 13.59 -2.25 L 15.59 -10.33 L 16.38 -10.33 L 16.38 -13.03 L 12.6 -13.03 L 12.6 -10.33 L 12.87 -10.33 L 11.7 -5.56 L 10.53 -10.33 L 10.8 -10.33 L 10.8 -13.03 L 6.48 -13.03 L 6.48 -10.33 L 6.75 -10.33 L 5.58 -5.56 L 4.41 -10.33 L 4.68 -10.33 L 4.68 -13.03 L 0.9 -13.03 Z M 1.35 -10.78 L 2.05 -10.78 L 4.25 -1.8 L 3.87 -1.8 L 3.87 0 L 7.29 0 L 7.29 -1.8 L 6.91 -1.8 L 8.64 -8.89 L 10.37 -1.8 L 9.99 -1.8 L 9.99 0 L 13.41 0 L 13.41 -1.8 L 13.03 -1.8 L 15.23 -10.78 L 15.93 -10.78 L 15.93 -12.58 L 13.05 -12.58 L 13.05 -10.78 L 13.43 -10.78 L 11.7 -3.69 L 9.97 -10.78 L 10.35 -10.78 L 10.35 -12.58 L 6.93 -12.58 L 6.93 -10.78 L 7.31 -10.78 L 5.58 -3.69 L 3.85 -10.78 L 4.23 -10.78 L 4.23 -12.58 L 1.35 -12.58 Z" stroke-linecap="round" />
</g>
</g>
</g>
<g transform="matrix(1.7759063828165718 0.7327950737164358 -0.7327950737164358 1.7759063828165718 525.0143477630136 799.8357191005996)" id="tagline-fcffefe3-726e-4ec3-8fbe-8f47e470a7f6-logo-14"  >
<g style=""  paint-order="stroke"   >
		<g transform="matrix(1 0 0 1 0 0)" id="tagline-fcffefe3-726e-4ec3-8fbe-8f47e470a7f6-logo-14-path-0"  >
<path style="stroke: none; stroke-width: 0; stroke-dasharray: none; stroke-linecap: butt; stroke-dashoffset: 0; stroke-linejoin: miter; stroke-miterlimit: 4; fill: rgb(242,212,155); fill-rule: nonzero; opacity: 1;"  paint-order="stroke"  transform=" translate(-4.95, 6.300000000000001)" d="M 3.04 0.27 L 1.08 -1.69 L 1.08 -10.91 L 3.04 -12.87 L 6.86 -12.87 L 8.82 -10.91 L 8.82 -1.69 L 6.86 0.27 Z M 0.9 -1.62 L 2.97 0.45 L 6.93 0.45 L 9 -1.62 L 9 -10.98 L 6.93 -13.05 L 2.97 -13.05 L 0.9 -10.98 Z M 1.35 -1.8 L 3.15 0 L 6.75 0 L 8.55 -1.8 L 8.55 -10.8 L 6.75 -12.6 L 3.15 -12.6 L 1.35 -10.8 Z M 3.15 -1.8 L 3.15 -10.8 L 6.75 -10.8 L 6.75 -1.8 Z M 3.42 -2.07 L 6.48 -2.07 L 6.48 -10.53 L 3.42 -10.53 Z M 3.6 -2.25 L 3.6 -10.35 L 6.3 -10.35 L 6.3 -2.25 Z" stroke-linecap="round" />
</g>
</g>
</g>
<g transform="matrix(1.8225005660511877 0.6077201554455942 -0.6077201554455942 1.822500566051188 544.6339227957534 807.161553748703)" id="tagline-fcffefe3-726e-4ec3-8fbe-8f47e470a7f6-logo-15"  >
<g style=""  paint-order="stroke"   >
		<g transform="matrix(1 0 0 1 0 0)" id="tagline-fcffefe3-726e-4ec3-8fbe-8f47e470a7f6-logo-15-path-0"  >
<path style="stroke: none; stroke-width: 0; stroke-dasharray: none; stroke-linecap: butt; stroke-dashoffset: 0; stroke-linejoin: miter; stroke-miterlimit: 4; fill: rgb(242,212,155); fill-rule: nonzero; opacity: 1;"  paint-order="stroke"  transform=" translate(-5.49, 6.29)" d="M 6.48 0.29 L 6.48 -2.05 L 7.02 -2.05 L 7.02 -5.13 L 3.96 -5.13 L 3.96 -2.07 L 4.5 -2.07 L 4.5 0.27 L 1.08 0.27 L 1.08 -2.07 L 1.62 -2.07 L 1.62 -10.53 L 1.08 -10.53 L 1.08 -12.87 L 7.4 -12.87 L 9.36 -10.91 L 9.36 -7.09 L 8.12 -5.85 L 9.36 -4.61 L 9.36 -2.05 L 9.9 -2.05 L 9.9 0.29 Z M 0.9 0.45 L 4.68 0.45 L 4.68 -2.25 L 4.14 -2.25 L 4.14 -4.95 L 6.84 -4.95 L 6.84 -2.23 L 6.3 -2.23 L 6.3 0.47 L 10.08 0.47 L 10.08 -2.23 L 9.54 -2.23 L 9.54 -4.68 L 8.37 -5.85 L 9.54 -7.02 L 9.54 -10.98 L 7.47 -13.05 L 0.9 -13.05 L 0.9 -10.35 L 1.44 -10.35 L 1.44 -2.25 L 0.9 -2.25 Z M 1.35 0 L 4.23 0 L 4.23 -1.8 L 3.69 -1.8 L 3.69 -5.4 L 7.29 -5.4 L 7.29 -1.78 L 6.75 -1.78 L 6.75 0.02 L 9.63 0.02 L 9.63 -1.78 L 9.09 -1.78 L 9.09 -4.5 L 7.74 -5.85 L 9.09 -7.2 L 9.09 -10.8 L 7.29 -12.6 L 1.35 -12.6 L 1.35 -10.8 L 1.89 -10.8 L 1.89 -1.8 L 1.35 -1.8 Z M 3.69 -7.2 L 3.69 -10.8 L 7.29 -10.8 L 7.29 -7.2 Z M 3.96 -7.47 L 7.02 -7.47 L 7.02 -10.53 L 3.96 -10.53 Z M 4.14 -7.65 L 4.14 -10.35 L 6.84 -10.35 L 6.84 -7.65 Z" stroke-linecap="round" />
</g>
</g>
</g>
<g transform="matrix(1.8597107472346093 0.48198344080663896 -0.48198344080663896 1.8597107472346093 564.3703696693622 812.9848451570456)" id="tagline-fcffefe3-726e-4ec3-8fbe-8f47e470a7f6-logo-16"  >
<g style=""  paint-order="stroke"   >
		<g transform="matrix(1 0 0 1 0 0)" id="tagline-fcffefe3-726e-4ec3-8fbe-8f47e470a7f6-logo-16-path-0"  >
<path style="stroke: none; stroke-width: 0; stroke-dasharray: none; stroke-linecap: butt; stroke-dashoffset: 0; stroke-linejoin: miter; stroke-miterlimit: 4; fill: rgb(242,212,155); fill-rule: nonzero; opacity: 1;"  paint-order="stroke"  transform=" translate(-4.7700000000000005, 6.300000000000001)" d="M 1.08 0.27 L 1.08 -2.07 L 1.62 -2.07 L 1.62 -10.53 L 1.12 -10.53 L 1.12 -12.87 L 4.5 -12.87 L 4.5 -10.53 L 3.96 -10.53 L 3.96 -2.07 L 6.12 -2.07 L 6.12 -2.83 L 8.46 -2.83 L 8.46 0.27 Z M 0.9 0.45 L 8.64 0.45 L 8.64 -3.01 L 5.94 -3.01 L 5.94 -2.25 L 4.14 -2.25 L 4.14 -10.35 L 4.68 -10.35 L 4.68 -13.05 L 0.94 -13.05 L 0.94 -10.35 L 1.44 -10.35 L 1.44 -2.25 L 0.9 -2.25 Z M 1.35 0 L 8.19 0 L 8.19 -2.56 L 6.39 -2.56 L 6.39 -1.8 L 3.69 -1.8 L 3.69 -10.8 L 4.23 -10.8 L 4.23 -12.6 L 1.39 -12.6 L 1.39 -10.8 L 1.89 -10.8 L 1.89 -1.8 L 1.35 -1.8 Z" stroke-linecap="round" />
</g>
</g>
</g>
<g transform="matrix(1.8876055233066171 0.3574597725256203 -0.3574597725256203 1.8876055233066171 583.9076260288988 817.3614198593826)" id="tagline-fcffefe3-726e-4ec3-8fbe-8f47e470a7f6-logo-17"  >
<g style=""  paint-order="stroke"   >
		<g transform="matrix(0.9999999999999999 0 0 1 0 0)" id="tagline-fcffefe3-726e-4ec3-8fbe-8f47e470a7f6-logo-17-path-0"  >
<path style="stroke: none; stroke-width: 0; stroke-dasharray: none; stroke-linecap: butt; stroke-dashoffset: 0; stroke-linejoin: miter; stroke-miterlimit: 4; fill: rgb(242,212,155); fill-rule: nonzero; opacity: 1;"  paint-order="stroke"  transform=" translate(-5.22, 6.300000000000001)" d="M 1.08 0.27 L 1.08 -2.07 L 1.62 -2.07 L 1.62 -10.53 L 1.08 -10.53 L 1.08 -12.87 L 7.4 -12.87 L 9.36 -10.91 L 9.36 -1.69 L 7.4 0.27 Z M 0.9 0.45 L 7.47 0.45 L 9.54 -1.62 L 9.54 -10.98 L 7.47 -13.05 L 0.9 -13.05 L 0.9 -10.35 L 1.44 -10.35 L 1.44 -2.25 L 0.9 -2.25 Z M 1.35 0 L 7.29 0 L 9.09 -1.8 L 9.09 -10.8 L 7.29 -12.6 L 1.35 -12.6 L 1.35 -10.8 L 1.89 -10.8 L 1.89 -1.8 L 1.35 -1.8 Z M 3.69 -1.8 L 3.69 -10.8 L 7.29 -10.8 L 7.29 -1.8 Z M 3.96 -2.07 L 7.02 -2.07 L 7.02 -10.53 L 3.96 -10.53 Z M 4.14 -2.25 L 4.14 -10.35 L 6.84 -10.35 L 6.84 -2.25 Z" stroke-linecap="round" />
</g>
</g>
</g>
<g transform="matrix(0.9913385994875437 0.1313308081376012 -0.1313308081376012 0.9913385994875437 306.6884812450456 426.98420418551984)" id="tagline-fcffefe3-726e-4ec3-8fbe-8f47e470a7f6-logo-18"  >
<g style=""  paint-order="stroke"   >
		<g transform="matrix(0.9999999999999999 0 0 1 0 0)" id="tagline-fcffefe3-726e-4ec3-8fbe-8f47e470a7f6-logo-18-path-0"  >
<path style="stroke: none; stroke-width: 0; stroke-dasharray: none; stroke-linecap: butt; stroke-dashoffset: 0; stroke-linejoin: miter; stroke-miterlimit: 4; fill: rgb(242,212,155); fill-rule: nonzero; opacity: 1;"  paint-order="stroke"  transform=" translate(0, 0)" d="" stroke-linecap="round" />
</g>
</g>
</g>
<g transform="matrix(1.9152978842883366 0.1498870075501479 -0.1498870075501479 1.9152978842883366 616.4802232519492 821.7059378425126)" id="tagline-fcffefe3-726e-4ec3-8fbe-8f47e470a7f6-logo-19"  >
<g style=""  paint-order="stroke"   >
		<g transform="matrix(1 0 0 1 0 0)" id="tagline-fcffefe3-726e-4ec3-8fbe-8f47e470a7f6-logo-19-path-0"  >
<path style="stroke: none; stroke-width: 0; stroke-dasharray: none; stroke-linecap: butt; stroke-dashoffset: 0; stroke-linejoin: miter; stroke-miterlimit: 4; fill: rgb(242,212,155); fill-rule: nonzero; opacity: 1;"  paint-order="stroke"  transform=" translate(-4.95, 6.300000000000001)" d="M 3.04 0.27 L 1.08 -1.69 L 1.08 -10.91 L 3.04 -12.87 L 5.96 -12.87 L 6.48 -12.35 L 6.48 -12.87 L 8.82 -12.87 L 8.82 -9.09 L 6.48 -9.09 L 6.48 -10.53 L 3.42 -10.53 L 3.42 -2.07 L 6.48 -2.07 L 6.48 -4.23 L 4.68 -4.23 L 4.68 -6.57 L 8.82 -6.57 L 8.82 -1.69 L 6.86 0.27 Z M 0.9 -1.62 L 2.97 0.45 L 6.93 0.45 L 9 -1.62 L 9 -6.75 L 4.5 -6.75 L 4.5 -4.05 L 6.3 -4.05 L 6.3 -2.25 L 3.6 -2.25 L 3.6 -10.35 L 6.3 -10.35 L 6.3 -8.91 L 9 -8.91 L 9 -13.05 L 6.3 -13.05 L 6.3 -12.78 L 6.03 -13.05 L 2.97 -13.05 L 0.9 -10.98 Z M 1.35 -1.8 L 3.15 0 L 6.75 0 L 8.55 -1.8 L 8.55 -6.3 L 4.95 -6.3 L 4.95 -4.5 L 6.75 -4.5 L 6.75 -1.8 L 3.15 -1.8 L 3.15 -10.8 L 6.75 -10.8 L 6.75 -9.36 L 8.55 -9.36 L 8.55 -12.6 L 6.75 -12.6 L 6.75 -11.7 L 5.85 -12.6 L 3.15 -12.6 L 1.35 -10.8 Z" stroke-linecap="round" />
</g>
</g>
</g>
<g transform="matrix(1.9210091474737236 0.023578717395008487 -0.023578717395008487 1.9210091474737236 636.300775712885 822.6012308543352)" id="tagline-fcffefe3-726e-4ec3-8fbe-8f47e470a7f6-logo-20"  >
<g style=""  paint-order="stroke"   >
		<g transform="matrix(1 0 0 1 0 0)" id="tagline-fcffefe3-726e-4ec3-8fbe-8f47e470a7f6-logo-20-path-0"  >
<path style="stroke: none; stroke-width: 0; stroke-dasharray: none; stroke-linecap: butt; stroke-dashoffset: 0; stroke-linejoin: miter; stroke-miterlimit: 4; fill: rgb(242,212,155); fill-rule: nonzero; opacity: 1;"  paint-order="stroke"  transform=" translate(-4.95, 6.300000000000001)" d="M 3.04 0.27 L 1.08 -1.69 L 1.08 -10.91 L 3.04 -12.87 L 6.86 -12.87 L 8.82 -10.91 L 8.82 -1.69 L 6.86 0.27 Z M 0.9 -1.62 L 2.97 0.45 L 6.93 0.45 L 9 -1.62 L 9 -10.98 L 6.93 -13.05 L 2.97 -13.05 L 0.9 -10.98 Z M 1.35 -1.8 L 3.15 0 L 6.75 0 L 8.55 -1.8 L 8.55 -10.8 L 6.75 -12.6 L 3.15 -12.6 L 1.35 -10.8 Z M 3.15 -1.8 L 3.15 -10.8 L 6.75 -10.8 L 6.75 -1.8 Z M 3.42 -2.07 L 6.48 -2.07 L 6.48 -10.53 L 3.42 -10.53 Z M 3.6 -2.25 L 3.6 -10.35 L 6.3 -10.35 L 6.3 -2.25 Z" stroke-linecap="round" />
</g>
</g>
</g>
<g transform="matrix(1.9179427238756108 -0.11103066479274423 0.11103066479274423 1.9179427238756108 657.4219993496835 822.1396768901247)" id="tagline-fcffefe3-726e-4ec3-8fbe-8f47e470a7f6-logo-21"  >
<g style=""  paint-order="stroke"   >
		<g transform="matrix(1 0 0 1 0 0)" id="tagline-fcffefe3-726e-4ec3-8fbe-8f47e470a7f6-logo-21-path-0"  >
<path style="stroke: none; stroke-width: 0; stroke-dasharray: none; stroke-linecap: butt; stroke-dashoffset: 0; stroke-linejoin: miter; stroke-miterlimit: 4; fill: rgb(242,212,155); fill-rule: nonzero; opacity: 1;"  paint-order="stroke"  transform=" translate(-5.58, 6.29)" d="M 3.6 0.27 L 3.6 -2.07 L 3.91 -2.07 L 1.84 -10.51 L 1.08 -10.51 L 1.08 -12.85 L 4.5 -12.85 L 4.5 -10.51 L 4.19 -10.51 L 5.58 -4.81 L 6.97 -10.51 L 6.66 -10.51 L 6.66 -12.85 L 10.08 -12.85 L 10.08 -10.51 L 9.32 -10.51 L 7.25 -2.07 L 7.56 -2.07 L 7.56 0.27 Z M 0.9 -10.33 L 1.69 -10.33 L 3.69 -2.25 L 3.42 -2.25 L 3.42 0.45 L 7.74 0.45 L 7.74 -2.25 L 7.47 -2.25 L 9.47 -10.33 L 10.26 -10.33 L 10.26 -13.03 L 6.48 -13.03 L 6.48 -10.33 L 6.75 -10.33 L 5.58 -5.56 L 4.41 -10.33 L 4.68 -10.33 L 4.68 -13.03 L 0.9 -13.03 Z M 1.35 -10.78 L 2.05 -10.78 L 4.25 -1.8 L 3.87 -1.8 L 3.87 0 L 7.29 0 L 7.29 -1.8 L 6.91 -1.8 L 9.11 -10.78 L 9.81 -10.78 L 9.81 -12.58 L 6.93 -12.58 L 6.93 -10.78 L 7.31 -10.78 L 5.58 -3.69 L 3.85 -10.78 L 4.23 -10.78 L 4.23 -12.58 L 1.35 -12.58 Z" stroke-linecap="round" />
</g>
</g>
</g>
<g transform="matrix(1.9057534100527411 -0.24276746211974898 0.242767462119749 1.9057534100527413 678.095704319402 820.2077288617919)" id="tagline-fcffefe3-726e-4ec3-8fbe-8f47e470a7f6-logo-22"  >
<g style=""  paint-order="stroke"   >
		<g transform="matrix(1 0 0 1 0 0)" id="tagline-fcffefe3-726e-4ec3-8fbe-8f47e470a7f6-logo-22-path-0"  >
<path style="stroke: none; stroke-width: 0; stroke-dasharray: none; stroke-linecap: butt; stroke-dashoffset: 0; stroke-linejoin: miter; stroke-miterlimit: 4; fill: rgb(242,212,155); fill-rule: nonzero; opacity: 1;"  paint-order="stroke"  transform=" translate(-4.7700000000000005, 6.300000000000001)" d="M 1.08 0.27 L 1.08 -2.07 L 1.62 -2.07 L 1.62 -10.53 L 1.08 -10.53 L 1.08 -12.87 L 8.46 -12.87 L 8.46 -9.72 L 6.12 -9.72 L 6.12 -10.53 L 3.96 -10.53 L 3.96 -7.47 L 6.66 -7.47 L 6.66 -5.13 L 3.96 -5.13 L 3.96 -2.07 L 6.12 -2.07 L 6.12 -2.88 L 8.46 -2.88 L 8.46 0.27 Z M 0.9 0.45 L 8.64 0.45 L 8.64 -3.06 L 5.94 -3.06 L 5.94 -2.25 L 4.14 -2.25 L 4.14 -4.95 L 6.84 -4.95 L 6.84 -7.65 L 4.14 -7.65 L 4.14 -10.35 L 5.94 -10.35 L 5.94 -9.54 L 8.64 -9.54 L 8.64 -13.05 L 0.9 -13.05 L 0.9 -10.35 L 1.44 -10.35 L 1.44 -2.25 L 0.9 -2.25 Z M 1.35 0 L 8.19 0 L 8.19 -2.61 L 6.39 -2.61 L 6.39 -1.8 L 3.69 -1.8 L 3.69 -5.4 L 6.39 -5.4 L 6.39 -7.2 L 3.69 -7.2 L 3.69 -10.8 L 6.39 -10.8 L 6.39 -9.99 L 8.19 -9.99 L 8.19 -12.6 L 1.35 -12.6 L 1.35 -10.8 L 1.89 -10.8 L 1.89 -1.8 L 1.35 -1.8 Z" stroke-linecap="round" />
</g>
</g>
</g>
<g transform="matrix(1.8847540010918733 -0.37220217081565965 0.37220217081565965 1.8847540010918733 698.4075018245344 816.9298417637174)" id="tagline-fcffefe3-726e-4ec3-8fbe-8f47e470a7f6-logo-23"  >
<g style=""  paint-order="stroke"   >
		<g transform="matrix(0.9999999999999999 0 0 1 0 0)" id="tagline-fcffefe3-726e-4ec3-8fbe-8f47e470a7f6-logo-23-path-0"  >
<path style="stroke: none; stroke-width: 0; stroke-dasharray: none; stroke-linecap: butt; stroke-dashoffset: 0; stroke-linejoin: miter; stroke-miterlimit: 4; fill: rgb(242,212,155); fill-rule: nonzero; opacity: 1;"  paint-order="stroke"  transform=" translate(-5.49, 6.29)" d="M 6.48 0.29 L 6.48 -2.05 L 7.02 -2.05 L 7.02 -5.13 L 3.96 -5.13 L 3.96 -2.07 L 4.5 -2.07 L 4.5 0.27 L 1.08 0.27 L 1.08 -2.07 L 1.62 -2.07 L 1.62 -10.53 L 1.08 -10.53 L 1.08 -12.87 L 7.4 -12.87 L 9.36 -10.91 L 9.36 -7.09 L 8.12 -5.85 L 9.36 -4.61 L 9.36 -2.05 L 9.9 -2.05 L 9.9 0.29 Z M 0.9 0.45 L 4.68 0.45 L 4.68 -2.25 L 4.14 -2.25 L 4.14 -4.95 L 6.84 -4.95 L 6.84 -2.23 L 6.3 -2.23 L 6.3 0.47 L 10.08 0.47 L 10.08 -2.23 L 9.54 -2.23 L 9.54 -4.68 L 8.37 -5.85 L 9.54 -7.02 L 9.54 -10.98 L 7.47 -13.05 L 0.9 -13.05 L 0.9 -10.35 L 1.44 -10.35 L 1.44 -2.25 L 0.9 -2.25 Z M 1.35 0 L 4.23 0 L 4.23 -1.8 L 3.69 -1.8 L 3.69 -5.4 L 7.29 -5.4 L 7.29 -1.78 L 6.75 -1.78 L 6.75 0.02 L 9.63 0.02 L 9.63 -1.78 L 9.09 -1.78 L 9.09 -4.5 L 7.74 -5.85 L 9.09 -7.2 L 9.09 -10.8 L 7.29 -12.6 L 1.35 -12.6 L 1.35 -10.8 L 1.89 -10.8 L 1.89 -1.8 L 1.35 -1.8 Z M 3.69 -7.2 L 3.69 -10.8 L 7.29 -10.8 L 7.29 -7.2 Z M 3.96 -7.47 L 7.02 -7.47 L 7.02 -10.53 L 3.96 -10.53 Z M 4.14 -7.65 L 4.14 -10.35 L 6.84 -10.35 L 6.84 -7.65 Z" stroke-linecap="round" />
</g>
</g>
</g>
<g transform="matrix(1.8525100315509395 -0.5089584301245563 0.5089584301245563 1.8525100315509395 719.8667319868822 811.8713556627265)" id="tagline-fcffefe3-726e-4ec3-8fbe-8f47e470a7f6-logo-24"  >
<g style=""  paint-order="stroke"   >
		<g transform="matrix(1 0 0 1 0 0)" id="tagline-fcffefe3-726e-4ec3-8fbe-8f47e470a7f6-logo-24-path-0"  >
<path style="stroke: none; stroke-width: 0; stroke-dasharray: none; stroke-linecap: butt; stroke-dashoffset: 0; stroke-linejoin: miter; stroke-miterlimit: 4; fill: rgb(242,212,155); fill-rule: nonzero; opacity: 1;"  paint-order="stroke"  transform=" translate(-5.49, 6.29)" d="M 1.08 0.27 L 1.08 -2.07 L 1.62 -2.07 L 1.62 -10.51 L 1.08 -10.51 L 1.08 -12.85 L 3.87 -12.85 L 7.02 -5.51 L 7.02 -10.51 L 6.48 -10.51 L 6.48 -12.85 L 9.9 -12.85 L 9.9 -10.51 L 9.36 -10.51 L 9.36 -2.07 L 9.9 -2.07 L 9.9 0.27 L 7.11 0.27 L 3.96 -7.07 L 3.96 -2.07 L 4.5 -2.07 L 4.5 0.27 Z M 0.9 0.45 L 4.68 0.45 L 4.68 -2.25 L 4.14 -2.25 L 4.14 -6.21 L 7 0.45 L 10.08 0.45 L 10.08 -2.25 L 9.54 -2.25 L 9.54 -10.33 L 10.08 -10.33 L 10.08 -13.03 L 6.3 -13.03 L 6.3 -10.33 L 6.84 -10.33 L 6.84 -6.37 L 3.98 -13.03 L 0.9 -13.03 L 0.9 -10.33 L 1.44 -10.33 L 1.44 -2.25 L 0.9 -2.25 Z M 1.35 0 L 4.23 0 L 4.23 -1.8 L 3.69 -1.8 L 3.69 -8.39 L 7.29 0 L 9.63 0 L 9.63 -1.8 L 9.09 -1.8 L 9.09 -10.78 L 9.63 -10.78 L 9.63 -12.58 L 6.75 -12.58 L 6.75 -10.78 L 7.29 -10.78 L 7.29 -4.19 L 3.69 -12.58 L 1.35 -12.58 L 1.35 -10.78 L 1.89 -10.78 L 1.89 -1.8 L 1.35 -1.8 Z" stroke-linecap="round" />
</g>
</g>
</g>
<g transform="matrix(1.813476535272309 -0.6341411172668575 0.6341411172668576 1.8134765352723092 739.5053507122877 805.7286646667075)" id="tagline-fcffefe3-726e-4ec3-8fbe-8f47e470a7f6-logo-25"  >
<g style=""  paint-order="stroke"   >
		<g transform="matrix(1 0 0 1 0 0)" id="tagline-fcffefe3-726e-4ec3-8fbe-8f47e470a7f6-logo-25-path-0"  >
<path style="stroke: none; stroke-width: 0; stroke-dasharray: none; stroke-linecap: butt; stroke-dashoffset: 0; stroke-linejoin: miter; stroke-miterlimit: 4; fill: rgb(242,212,155); fill-rule: nonzero; opacity: 1;"  paint-order="stroke"  transform=" translate(-4.7700000000000005, 6.300000000000001)" d="M 1.08 0.27 L 1.08 -2.07 L 1.62 -2.07 L 1.62 -10.53 L 1.08 -10.53 L 1.08 -12.87 L 8.46 -12.87 L 8.46 -9.72 L 6.12 -9.72 L 6.12 -10.53 L 3.96 -10.53 L 3.96 -7.47 L 6.66 -7.47 L 6.66 -5.13 L 3.96 -5.13 L 3.96 -2.07 L 6.12 -2.07 L 6.12 -2.88 L 8.46 -2.88 L 8.46 0.27 Z M 0.9 0.45 L 8.64 0.45 L 8.64 -3.06 L 5.94 -3.06 L 5.94 -2.25 L 4.14 -2.25 L 4.14 -4.95 L 6.84 -4.95 L 6.84 -7.65 L 4.14 -7.65 L 4.14 -10.35 L 5.94 -10.35 L 5.94 -9.54 L 8.64 -9.54 L 8.64 -13.05 L 0.9 -13.05 L 0.9 -10.35 L 1.44 -10.35 L 1.44 -2.25 L 0.9 -2.25 Z M 1.35 0 L 8.19 0 L 8.19 -2.61 L 6.39 -2.61 L 6.39 -1.8 L 3.69 -1.8 L 3.69 -5.4 L 6.39 -5.4 L 6.39 -7.2 L 3.69 -7.2 L 3.69 -10.8 L 6.39 -10.8 L 6.39 -9.99 L 8.19 -9.99 L 8.19 -12.6 L 1.35 -12.6 L 1.35 -10.8 L 1.89 -10.8 L 1.89 -1.8 L 1.35 -1.8 Z" stroke-linecap="round" />
</g>
</g>
</g>
<g transform="matrix(1.7673772798987781 -0.7531332226700086 0.7531332226700087 1.7673772798987781 758.1775838650851 798.4967000204362)" id="tagline-fcffefe3-726e-4ec3-8fbe-8f47e470a7f6-logo-26"  >
<g style=""  paint-order="stroke"   >
		<g transform="matrix(1 0 0 1 0 0)" id="tagline-fcffefe3-726e-4ec3-8fbe-8f47e470a7f6-logo-26-path-0"  >
<path style="stroke: none; stroke-width: 0; stroke-dasharray: none; stroke-linecap: butt; stroke-dashoffset: 0; stroke-linejoin: miter; stroke-miterlimit: 4; fill: rgb(242,212,155); fill-rule: nonzero; opacity: 1;"  paint-order="stroke"  transform=" translate(-5.22, 6.300000000000001)" d="M 1.08 0.27 L 1.08 -2.07 L 1.62 -2.07 L 1.62 -10.53 L 1.08 -10.53 L 1.08 -12.87 L 7.4 -12.87 L 9.36 -10.91 L 9.36 -1.69 L 7.4 0.27 Z M 0.9 0.45 L 7.47 0.45 L 9.54 -1.62 L 9.54 -10.98 L 7.47 -13.05 L 0.9 -13.05 L 0.9 -10.35 L 1.44 -10.35 L 1.44 -2.25 L 0.9 -2.25 Z M 1.35 0 L 7.29 0 L 9.09 -1.8 L 9.09 -10.8 L 7.29 -12.6 L 1.35 -12.6 L 1.35 -10.8 L 1.89 -10.8 L 1.89 -1.8 L 1.35 -1.8 Z M 3.69 -1.8 L 3.69 -10.8 L 7.29 -10.8 L 7.29 -1.8 Z M 3.96 -2.07 L 7.02 -2.07 L 7.02 -10.53 L 3.96 -10.53 Z M 4.14 -2.25 L 4.14 -10.35 L 6.84 -10.35 L 6.84 -2.25 Z" stroke-linecap="round" />
</g>
</g>
</g>
<g transform="matrix(0.896818183850703 -0.4423993050567855 0.4423993050567855 0.896818183850703 400.0296338241913 409.7551064049191)" id="tagline-fcffefe3-726e-4ec3-8fbe-8f47e470a7f6-logo-27"  >
<g style=""  paint-order="stroke"   >
		<g transform="matrix(1 0 0 1 0 0)" id="tagline-fcffefe3-726e-4ec3-8fbe-8f47e470a7f6-logo-27-path-0"  >
<path style="stroke: none; stroke-width: 0; stroke-dasharray: none; stroke-linecap: butt; stroke-dashoffset: 0; stroke-linejoin: miter; stroke-miterlimit: 4; fill: rgb(242,212,155); fill-rule: nonzero; opacity: 1;"  paint-order="stroke"  transform=" translate(0, 0)" d="" stroke-linecap="round" />
</g>
</g>
</g>
<g transform="matrix(1.672602249856873 -0.9451104773334401 0.9451104773334401 1.672602249856873 788.3021934464424 783.6223414451441)" id="tagline-fcffefe3-726e-4ec3-8fbe-8f47e470a7f6-logo-28"  >
<g style=""  paint-order="stroke"   >
		<g transform="matrix(1 0 0 1 0 0)" id="tagline-fcffefe3-726e-4ec3-8fbe-8f47e470a7f6-logo-28-path-0"  >
<path style="stroke: none; stroke-width: 0; stroke-dasharray: none; stroke-linecap: butt; stroke-dashoffset: 0; stroke-linejoin: miter; stroke-miterlimit: 4; fill: rgb(242,212,155); fill-rule: nonzero; opacity: 1;"  paint-order="stroke"  transform=" translate(-5.3100000000000005, 6.300000000000001)" d="M 3.6 0.27 L 3.6 -2.07 L 4.14 -2.07 L 4.14 -10.53 L 3.42 -10.53 L 3.42 -9.77 L 1.08 -9.77 L 1.08 -12.87 L 9.54 -12.87 L 9.54 -9.77 L 7.2 -9.77 L 7.2 -10.53 L 6.48 -10.53 L 6.48 -2.07 L 6.98 -2.07 L 6.98 0.27 Z M 0.9 -9.59 L 3.6 -9.59 L 3.6 -10.35 L 3.96 -10.35 L 3.96 -2.25 L 3.42 -2.25 L 3.42 0.45 L 7.16 0.45 L 7.16 -2.25 L 6.66 -2.25 L 6.66 -10.35 L 7.02 -10.35 L 7.02 -9.59 L 9.72 -9.59 L 9.72 -13.05 L 0.9 -13.05 Z M 1.35 -10.04 L 3.15 -10.04 L 3.15 -10.8 L 4.41 -10.8 L 4.41 -1.8 L 3.87 -1.8 L 3.87 0 L 6.71 0 L 6.71 -1.8 L 6.21 -1.8 L 6.21 -10.8 L 7.47 -10.8 L 7.47 -10.04 L 9.27 -10.04 L 9.27 -12.6 L 1.35 -12.6 Z" stroke-linecap="round" />
</g>
</g>
</g>
<g transform="matrix(1.6003525387413313 -1.0628752760017943 1.0628752760017943 1.6003525387413313 806.7915014957832 772.3024201467942)" id="tagline-fcffefe3-726e-4ec3-8fbe-8f47e470a7f6-logo-29"  >
<g style=""  paint-order="stroke"   >
		<g transform="matrix(0.9999999999999999 0 0 1 0 0)" id="tagline-fcffefe3-726e-4ec3-8fbe-8f47e470a7f6-logo-29-path-0"  >
<path style="stroke: none; stroke-width: 0; stroke-dasharray: none; stroke-linecap: butt; stroke-dashoffset: 0; stroke-linejoin: miter; stroke-miterlimit: 4; fill: rgb(242,212,155); fill-rule: nonzero; opacity: 1;"  paint-order="stroke"  transform=" translate(-5.49, 6.29)" d="M 1.08 0.27 L 1.08 -2.07 L 1.62 -2.07 L 1.62 -10.51 L 1.08 -10.51 L 1.08 -12.85 L 4.5 -12.85 L 4.5 -10.51 L 3.96 -10.51 L 3.96 -7.47 L 7.02 -7.47 L 7.02 -10.51 L 6.48 -10.51 L 6.48 -12.85 L 9.9 -12.85 L 9.9 -10.51 L 9.36 -10.51 L 9.36 -2.07 L 9.9 -2.07 L 9.9 0.27 L 6.48 0.27 L 6.48 -2.07 L 7.02 -2.07 L 7.02 -5.13 L 3.96 -5.13 L 3.96 -2.07 L 4.5 -2.07 L 4.5 0.27 Z M 0.9 0.45 L 4.68 0.45 L 4.68 -2.25 L 4.14 -2.25 L 4.14 -4.95 L 6.84 -4.95 L 6.84 -2.25 L 6.3 -2.25 L 6.3 0.45 L 10.08 0.45 L 10.08 -2.25 L 9.54 -2.25 L 9.54 -10.33 L 10.08 -10.33 L 10.08 -13.03 L 6.3 -13.03 L 6.3 -10.33 L 6.84 -10.33 L 6.84 -7.65 L 4.14 -7.65 L 4.14 -10.33 L 4.68 -10.33 L 4.68 -13.03 L 0.9 -13.03 L 0.9 -10.33 L 1.44 -10.33 L 1.44 -2.25 L 0.9 -2.25 Z M 1.35 0 L 4.23 0 L 4.23 -1.8 L 3.69 -1.8 L 3.69 -5.4 L 7.29 -5.4 L 7.29 -1.8 L 6.75 -1.8 L 6.75 0 L 9.63 0 L 9.63 -1.8 L 9.09 -1.8 L 9.09 -10.78 L 9.63 -10.78 L 9.63 -12.58 L 6.75 -12.58 L 6.75 -10.78 L 7.29 -10.78 L 7.29 -7.2 L 3.69 -7.2 L 3.69 -10.78 L 4.23 -10.78 L 4.23 -12.58 L 1.35 -12.58 L 1.35 -10.78 L 1.89 -10.78 L 1.89 -1.8 L 1.35 -1.8 Z" stroke-linecap="round" />
</g>
</g>
</g>
<g transform="matrix(1.5183897134919675 -1.1769982066908584 1.1769982066908584 1.5183897134919677 824.6983991553091 759.4388736857175)" id="tagline-fcffefe3-726e-4ec3-8fbe-8f47e470a7f6-logo-30"  >
<g style=""  paint-order="stroke"   >
		<g transform="matrix(1 0 0 1 0 0)" id="tagline-fcffefe3-726e-4ec3-8fbe-8f47e470a7f6-logo-30-path-0"  >
<path style="stroke: none; stroke-width: 0; stroke-dasharray: none; stroke-linecap: butt; stroke-dashoffset: 0; stroke-linejoin: miter; stroke-miterlimit: 4; fill: rgb(242,212,155); fill-rule: nonzero; opacity: 1;"  paint-order="stroke"  transform=" translate(-5.49, 6.29)" d="M 6.48 0.29 L 6.48 -2.05 L 7.02 -2.05 L 7.02 -5.13 L 3.96 -5.13 L 3.96 -2.07 L 4.5 -2.07 L 4.5 0.27 L 1.08 0.27 L 1.08 -2.07 L 1.62 -2.07 L 1.62 -10.53 L 1.08 -10.53 L 1.08 -12.87 L 7.4 -12.87 L 9.36 -10.91 L 9.36 -7.09 L 8.12 -5.85 L 9.36 -4.61 L 9.36 -2.05 L 9.9 -2.05 L 9.9 0.29 Z M 0.9 0.45 L 4.68 0.45 L 4.68 -2.25 L 4.14 -2.25 L 4.14 -4.95 L 6.84 -4.95 L 6.84 -2.23 L 6.3 -2.23 L 6.3 0.47 L 10.08 0.47 L 10.08 -2.23 L 9.54 -2.23 L 9.54 -4.68 L 8.37 -5.85 L 9.54 -7.02 L 9.54 -10.98 L 7.47 -13.05 L 0.9 -13.05 L 0.9 -10.35 L 1.44 -10.35 L 1.44 -2.25 L 0.9 -2.25 Z M 1.35 0 L 4.23 0 L 4.23 -1.8 L 3.69 -1.8 L 3.69 -5.4 L 7.29 -5.4 L 7.29 -1.78 L 6.75 -1.78 L 6.75 0.02 L 9.63 0.02 L 9.63 -1.78 L 9.09 -1.78 L 9.09 -4.5 L 7.74 -5.85 L 9.09 -7.2 L 9.09 -10.8 L 7.29 -12.6 L 1.35 -12.6 L 1.35 -10.8 L 1.89 -10.8 L 1.89 -1.8 L 1.35 -1.8 Z M 3.69 -7.2 L 3.69 -10.8 L 7.29 -10.8 L 7.29 -7.2 Z M 3.96 -7.47 L 7.02 -7.47 L 7.02 -10.53 L 3.96 -10.53 Z M 4.14 -7.65 L 4.14 -10.35 L 6.84 -10.35 L 6.84 -7.65 Z" stroke-linecap="round" />
</g>
</g>
</g>
<g transform="matrix(1.4330028146987868 -1.2795839298995084 1.2795839298995084 1.4330028146987868 840.7861525456786 746.0278758237415)" id="tagline-fcffefe3-726e-4ec3-8fbe-8f47e470a7f6-logo-31"  >
<g style=""  paint-order="stroke"   >
		<g transform="matrix(1 0 0 1 0 0)" id="tagline-fcffefe3-726e-4ec3-8fbe-8f47e470a7f6-logo-31-path-0"  >
<path style="stroke: none; stroke-width: 0; stroke-dasharray: none; stroke-linecap: butt; stroke-dashoffset: 0; stroke-linejoin: miter; stroke-miterlimit: 4; fill: rgb(242,212,155); fill-rule: nonzero; opacity: 1;"  paint-order="stroke"  transform=" translate(-4.95, 6.300000000000001)" d="M 3.04 0.27 L 1.08 -1.69 L 1.08 -10.91 L 3.04 -12.87 L 6.86 -12.87 L 8.82 -10.91 L 8.82 -1.69 L 6.86 0.27 Z M 0.9 -1.62 L 2.97 0.45 L 6.93 0.45 L 9 -1.62 L 9 -10.98 L 6.93 -13.05 L 2.97 -13.05 L 0.9 -10.98 Z M 1.35 -1.8 L 3.15 0 L 6.75 0 L 8.55 -1.8 L 8.55 -10.8 L 6.75 -12.6 L 3.15 -12.6 L 1.35 -10.8 Z M 3.15 -1.8 L 3.15 -10.8 L 6.75 -10.8 L 6.75 -1.8 Z M 3.42 -2.07 L 6.48 -2.07 L 6.48 -10.53 L 3.42 -10.53 Z M 3.6 -2.25 L 3.6 -10.35 L 6.3 -10.35 L 6.3 -2.25 Z" stroke-linecap="round" />
</g>
</g>
</g>
<g transform="matrix(1.3406991582130623 -1.3759934112336811 1.3759934112336811 1.3406991582130623 855.9135374172864 731.5427576676406)" id="tagline-fcffefe3-726e-4ec3-8fbe-8f47e470a7f6-logo-32"  >
<g style=""  paint-order="stroke"   >
		<g transform="matrix(1 0 0 1 0 0)" id="tagline-fcffefe3-726e-4ec3-8fbe-8f47e470a7f6-logo-32-path-0"  >
<path style="stroke: none; stroke-width: 0; stroke-dasharray: none; stroke-linecap: butt; stroke-dashoffset: 0; stroke-linejoin: miter; stroke-miterlimit: 4; fill: rgb(242,212,155); fill-rule: nonzero; opacity: 1;"  paint-order="stroke"  transform=" translate(-5.49, 6.300000000000001)" d="M 3.58 0.27 L 1.62 -1.69 L 1.62 -10.53 L 1.08 -10.53 L 1.08 -12.87 L 4.5 -12.87 L 4.5 -10.53 L 3.96 -10.53 L 3.96 -2.07 L 7.02 -2.07 L 7.02 -10.53 L 6.48 -10.53 L 6.48 -12.87 L 9.9 -12.87 L 9.9 -10.53 L 9.36 -10.53 L 9.36 -2.07 L 9.9 -2.07 L 9.9 0.27 L 7.02 0.27 L 7.02 -0.25 L 6.5 0.27 Z M 0.9 -10.35 L 1.44 -10.35 L 1.44 -1.62 L 3.51 0.45 L 6.57 0.45 L 6.84 0.18 L 6.84 0.45 L 10.08 0.45 L 10.08 -2.25 L 9.54 -2.25 L 9.54 -10.35 L 10.08 -10.35 L 10.08 -13.05 L 6.3 -13.05 L 6.3 -10.35 L 6.84 -10.35 L 6.84 -2.25 L 4.14 -2.25 L 4.14 -10.35 L 4.68 -10.35 L 4.68 -13.05 L 0.9 -13.05 Z M 1.35 -10.8 L 1.89 -10.8 L 1.89 -1.8 L 3.69 0 L 6.39 0 L 7.29 -0.9 L 7.29 0 L 9.63 0 L 9.63 -1.8 L 9.09 -1.8 L 9.09 -10.8 L 9.63 -10.8 L 9.63 -12.6 L 6.75 -12.6 L 6.75 -10.8 L 7.29 -10.8 L 7.29 -1.8 L 3.69 -1.8 L 3.69 -10.8 L 4.23 -10.8 L 4.23 -12.6 L 1.35 -12.6 Z" stroke-linecap="round" />
</g>
</g>
</g>
<g transform="matrix(1.2419242714402534 -1.46576130546529 1.46576130546529 1.2419242714402536 870.0003342126715 716.0455343262763)" id="tagline-fcffefe3-726e-4ec3-8fbe-8f47e470a7f6-logo-33"  >
<g style=""  paint-order="stroke"   >
		<g transform="matrix(1 0 0 1 0 0)" id="tagline-fcffefe3-726e-4ec3-8fbe-8f47e470a7f6-logo-33-path-0"  >
<path style="stroke: none; stroke-width: 0; stroke-dasharray: none; stroke-linecap: butt; stroke-dashoffset: 0; stroke-linejoin: miter; stroke-miterlimit: 4; fill: rgb(242,212,155); fill-rule: nonzero; opacity: 1;"  paint-order="stroke"  transform=" translate(-4.95, 6.300000000000001)" d="M 3.04 0.27 L 1.08 -1.69 L 1.08 -10.91 L 3.04 -12.87 L 5.96 -12.87 L 6.48 -12.35 L 6.48 -12.87 L 8.82 -12.87 L 8.82 -9.09 L 6.48 -9.09 L 6.48 -10.53 L 3.42 -10.53 L 3.42 -2.07 L 6.48 -2.07 L 6.48 -4.23 L 4.68 -4.23 L 4.68 -6.57 L 8.82 -6.57 L 8.82 -1.69 L 6.86 0.27 Z M 0.9 -1.62 L 2.97 0.45 L 6.93 0.45 L 9 -1.62 L 9 -6.75 L 4.5 -6.75 L 4.5 -4.05 L 6.3 -4.05 L 6.3 -2.25 L 3.6 -2.25 L 3.6 -10.35 L 6.3 -10.35 L 6.3 -8.91 L 9 -8.91 L 9 -13.05 L 6.3 -13.05 L 6.3 -12.78 L 6.03 -13.05 L 2.97 -13.05 L 0.9 -10.98 Z M 1.35 -1.8 L 3.15 0 L 6.75 0 L 8.55 -1.8 L 8.55 -6.3 L 4.95 -6.3 L 4.95 -4.5 L 6.75 -4.5 L 6.75 -1.8 L 3.15 -1.8 L 3.15 -10.8 L 6.75 -10.8 L 6.75 -9.36 L 8.55 -9.36 L 8.55 -12.6 L 6.75 -12.6 L 6.75 -11.7 L 5.85 -12.6 L 3.15 -12.6 L 1.35 -10.8 Z" stroke-linecap="round" />
</g>
</g>
</g>
<g transform="matrix(1.1371549168478907 -1.5484543246994344 1.5484543246994347 1.137154916847891 882.9890715160186 699.6135821262642)" id="tagline-fcffefe3-726e-4ec3-8fbe-8f47e470a7f6-logo-34"  >
<g style=""  paint-order="stroke"   >
		<g transform="matrix(1 0 0 1 0 0)" id="tagline-fcffefe3-726e-4ec3-8fbe-8f47e470a7f6-logo-34-path-0"  >
<path style="stroke: none; stroke-width: 0; stroke-dasharray: none; stroke-linecap: butt; stroke-dashoffset: 0; stroke-linejoin: miter; stroke-miterlimit: 4; fill: rgb(242,212,155); fill-rule: nonzero; opacity: 1;"  paint-order="stroke"  transform=" translate(-5.49, 6.29)" d="M 1.08 0.27 L 1.08 -2.07 L 1.62 -2.07 L 1.62 -10.51 L 1.08 -10.51 L 1.08 -12.85 L 4.5 -12.85 L 4.5 -10.51 L 3.96 -10.51 L 3.96 -7.47 L 7.02 -7.47 L 7.02 -10.51 L 6.48 -10.51 L 6.48 -12.85 L 9.9 -12.85 L 9.9 -10.51 L 9.36 -10.51 L 9.36 -2.07 L 9.9 -2.07 L 9.9 0.27 L 6.48 0.27 L 6.48 -2.07 L 7.02 -2.07 L 7.02 -5.13 L 3.96 -5.13 L 3.96 -2.07 L 4.5 -2.07 L 4.5 0.27 Z M 0.9 0.45 L 4.68 0.45 L 4.68 -2.25 L 4.14 -2.25 L 4.14 -4.95 L 6.84 -4.95 L 6.84 -2.25 L 6.3 -2.25 L 6.3 0.45 L 10.08 0.45 L 10.08 -2.25 L 9.54 -2.25 L 9.54 -10.33 L 10.08 -10.33 L 10.08 -13.03 L 6.3 -13.03 L 6.3 -10.33 L 6.84 -10.33 L 6.84 -7.65 L 4.14 -7.65 L 4.14 -10.33 L 4.68 -10.33 L 4.68 -13.03 L 0.9 -13.03 L 0.9 -10.33 L 1.44 -10.33 L 1.44 -2.25 L 0.9 -2.25 Z M 1.35 0 L 4.23 0 L 4.23 -1.8 L 3.69 -1.8 L 3.69 -5.4 L 7.29 -5.4 L 7.29 -1.8 L 6.75 -1.8 L 6.75 0 L 9.63 0 L 9.63 -1.8 L 9.09 -1.8 L 9.09 -10.78 L 9.63 -10.78 L 9.63 -12.58 L 6.75 -12.58 L 6.75 -10.78 L 7.29 -10.78 L 7.29 -7.2 L 3.69 -7.2 L 3.69 -10.78 L 4.23 -10.78 L 4.23 -12.58 L 1.35 -12.58 L 1.35 -10.78 L 1.89 -10.78 L 1.89 -1.8 L 1.35 -1.8 Z" stroke-linecap="round" />
</g>
</g>
</g>
<g transform="matrix(0.5448021541754524 -0.8385646145681241 0.8385646145681241 0.5448021541754524 463.5848645560024 351.04970161682905)" id="tagline-fcffefe3-726e-4ec3-8fbe-8f47e470a7f6-logo-35"  >
<g style=""  paint-order="stroke"   >
		<g transform="matrix(1 0 0 1 0 0)" id="tagline-fcffefe3-726e-4ec3-8fbe-8f47e470a7f6-logo-35-path-0"  >
<path style="stroke: none; stroke-width: 0; stroke-dasharray: none; stroke-linecap: butt; stroke-dashoffset: 0; stroke-linejoin: miter; stroke-miterlimit: 4; fill: rgb(242,212,155); fill-rule: nonzero; opacity: 1;"  paint-order="stroke"  transform=" translate(0, 0)" d="" stroke-linecap="round" />
</g>
</g>
</g>
<g transform="matrix(0.9608480504213514 -1.663611470444107 1.663611470444107 0.9608480504213515 901.0444526499178 671.9388322009413)" id="tagline-fcffefe3-726e-4ec3-8fbe-8f47e470a7f6-logo-36"  >
<g style=""  paint-order="stroke"   >
		<g transform="matrix(1 0 0 1 0 0)" id="tagline-fcffefe3-726e-4ec3-8fbe-8f47e470a7f6-logo-36-path-0"  >
<path style="stroke: none; stroke-width: 0; stroke-dasharray: none; stroke-linecap: butt; stroke-dashoffset: 0; stroke-linejoin: miter; stroke-miterlimit: 4; fill: rgb(242,212,155); fill-rule: nonzero; opacity: 1;"  paint-order="stroke"  transform=" translate(-4.7700000000000005, 6.300000000000001)" d="M 1.08 0.27 L 1.08 -2.07 L 1.62 -2.07 L 1.62 -10.53 L 1.12 -10.53 L 1.12 -12.87 L 4.5 -12.87 L 4.5 -10.53 L 3.96 -10.53 L 3.96 -2.07 L 6.12 -2.07 L 6.12 -2.83 L 8.46 -2.83 L 8.46 0.27 Z M 0.9 0.45 L 8.64 0.45 L 8.64 -3.01 L 5.94 -3.01 L 5.94 -2.25 L 4.14 -2.25 L 4.14 -10.35 L 4.68 -10.35 L 4.68 -13.05 L 0.94 -13.05 L 0.94 -10.35 L 1.44 -10.35 L 1.44 -2.25 L 0.9 -2.25 Z M 1.35 0 L 8.19 0 L 8.19 -2.56 L 6.39 -2.56 L 6.39 -1.8 L 3.69 -1.8 L 3.69 -10.8 L 4.23 -10.8 L 4.23 -12.6 L 1.39 -12.6 L 1.39 -10.8 L 1.89 -10.8 L 1.89 -1.8 L 1.35 -1.8 Z" stroke-linecap="round" />
</g>
</g>
</g>
<g transform="matrix(0.8440736874320541 -1.7257959644107903 1.7257959644107905 0.8440736874320542 910.8186331964839 653.6240791995724)" id="tagline-fcffefe3-726e-4ec3-8fbe-8f47e470a7f6-logo-37"  >
<g style=""  paint-order="stroke"   >
		<g transform="matrix(0.9999999999999999 0 0 1 0 0)" id="tagline-fcffefe3-726e-4ec3-8fbe-8f47e470a7f6-logo-37-path-0"  >
<path style="stroke: none; stroke-width: 0; stroke-dasharray: none; stroke-linecap: butt; stroke-dashoffset: 0; stroke-linejoin: miter; stroke-miterlimit: 4; fill: rgb(242,212,155); fill-rule: nonzero; opacity: 1;"  paint-order="stroke"  transform=" translate(-5.58, 6.29)" d="M 1.08 0.27 L 1.08 -2.07 L 1.84 -2.07 L 3.91 -10.51 L 3.6 -10.51 L 3.6 -12.85 L 7.56 -12.85 L 7.56 -10.51 L 7.25 -10.51 L 9.32 -2.07 L 10.08 -2.07 L 10.08 0.27 L 6.66 0.27 L 6.66 -2.07 L 6.97 -2.07 L 6.66 -3.33 L 4.5 -3.33 L 4.19 -2.07 L 4.5 -2.07 L 4.5 0.27 Z M 0.9 0.45 L 4.68 0.45 L 4.68 -2.25 L 4.41 -2.25 L 4.64 -3.15 L 6.52 -3.15 L 6.75 -2.25 L 6.48 -2.25 L 6.48 0.45 L 10.26 0.45 L 10.26 -2.25 L 9.47 -2.25 L 7.47 -10.33 L 7.74 -10.33 L 7.74 -13.03 L 3.42 -13.03 L 3.42 -10.33 L 3.69 -10.33 L 1.69 -2.25 L 0.9 -2.25 Z M 1.35 0 L 4.23 0 L 4.23 -1.8 L 3.85 -1.8 L 4.28 -3.6 L 6.88 -3.6 L 7.31 -1.8 L 6.93 -1.8 L 6.93 0 L 9.81 0 L 9.81 -1.8 L 9.11 -1.8 L 6.91 -10.78 L 7.29 -10.78 L 7.29 -12.58 L 3.87 -12.58 L 3.87 -10.78 L 4.25 -10.78 L 2.05 -1.8 L 1.35 -1.8 Z M 4.73 -5.4 L 5.58 -8.89 L 6.43 -5.4 Z M 5.08 -5.67 L 6.08 -5.67 L 5.58 -7.78 Z M 5.29 -5.85 L 5.58 -7.02 L 5.87 -5.85 Z" stroke-linecap="round" />
</g>
</g>
</g>
<g transform="matrix(0.7069645757455855 -1.7863463239899986 1.7863463239899988 0.7069645757455855 920.3205469267643 632.1073364075662)" id="tagline-fcffefe3-726e-4ec3-8fbe-8f47e470a7f6-logo-38"  >
<g style=""  paint-order="stroke"   >
		<g transform="matrix(1 0 0 1 0 0)" id="tagline-fcffefe3-726e-4ec3-8fbe-8f47e470a7f6-logo-38-path-0"  >
<path style="stroke: none; stroke-width: 0; stroke-dasharray: none; stroke-linecap: butt; stroke-dashoffset: 0; stroke-linejoin: miter; stroke-miterlimit: 4; fill: rgb(242,212,155); fill-rule: nonzero; opacity: 1;"  paint-order="stroke"  transform=" translate(-8.639999999999999, 6.29)" d="M 3.6 0.27 L 3.6 -2.07 L 3.91 -2.07 L 1.84 -10.51 L 1.08 -10.51 L 1.08 -12.85 L 4.5 -12.85 L 4.5 -10.51 L 4.19 -10.51 L 5.58 -4.81 L 6.97 -10.51 L 6.66 -10.51 L 6.66 -12.85 L 10.62 -12.85 L 10.62 -10.51 L 10.31 -10.51 L 11.7 -4.81 L 13.09 -10.51 L 12.78 -10.51 L 12.78 -12.85 L 16.2 -12.85 L 16.2 -10.51 L 15.44 -10.51 L 13.37 -2.07 L 13.68 -2.07 L 13.68 0.27 L 9.72 0.27 L 9.72 -2.07 L 10.03 -2.07 L 8.64 -7.78 L 7.25 -2.07 L 7.56 -2.07 L 7.56 0.27 Z M 0.9 -10.33 L 1.69 -10.33 L 3.69 -2.25 L 3.42 -2.25 L 3.42 0.45 L 7.74 0.45 L 7.74 -2.25 L 7.47 -2.25 L 8.64 -7.02 L 9.81 -2.25 L 9.54 -2.25 L 9.54 0.45 L 13.86 0.45 L 13.86 -2.25 L 13.59 -2.25 L 15.59 -10.33 L 16.38 -10.33 L 16.38 -13.03 L 12.6 -13.03 L 12.6 -10.33 L 12.87 -10.33 L 11.7 -5.56 L 10.53 -10.33 L 10.8 -10.33 L 10.8 -13.03 L 6.48 -13.03 L 6.48 -10.33 L 6.75 -10.33 L 5.58 -5.56 L 4.41 -10.33 L 4.68 -10.33 L 4.68 -13.03 L 0.9 -13.03 Z M 1.35 -10.78 L 2.05 -10.78 L 4.25 -1.8 L 3.87 -1.8 L 3.87 0 L 7.29 0 L 7.29 -1.8 L 6.91 -1.8 L 8.64 -8.89 L 10.37 -1.8 L 9.99 -1.8 L 9.99 0 L 13.41 0 L 13.41 -1.8 L 13.03 -1.8 L 15.23 -10.78 L 15.93 -10.78 L 15.93 -12.58 L 13.05 -12.58 L 13.05 -10.78 L 13.43 -10.78 L 11.7 -3.69 L 9.97 -10.78 L 10.35 -10.78 L 10.35 -12.58 L 6.93 -12.58 L 6.93 -10.78 L 7.31 -10.78 L 5.58 -3.69 L 3.85 -10.78 L 4.23 -10.78 L 4.23 -12.58 L 1.35 -12.58 Z" stroke-linecap="round" />
</g>
</g>
</g>
<g transform="matrix(0.5419630124266479 -1.8431245735850705 1.8431245735850708 0.5419630124266479 929.2132323460562 606.2088836689921)" id="tagline-fcffefe3-726e-4ec3-8fbe-8f47e470a7f6-logo-39"  >
<g style=""  paint-order="stroke"   >
		<g transform="matrix(1 0 0 1 0 0)" id="tagline-fcffefe3-726e-4ec3-8fbe-8f47e470a7f6-logo-39-path-0"  >
<path style="stroke: none; stroke-width: 0; stroke-dasharray: none; stroke-linecap: butt; stroke-dashoffset: 0; stroke-linejoin: miter; stroke-miterlimit: 4; fill: rgb(242,212,155); fill-rule: nonzero; opacity: 1;"  paint-order="stroke"  transform=" translate(-4.95, 6.300000000000001)" d="M 3.04 0.27 L 1.08 -1.69 L 1.08 -3.87 L 3.42 -3.87 L 3.42 -2.07 L 6.48 -2.07 L 6.48 -5.13 L 3.04 -5.13 L 1.08 -7.09 L 1.08 -10.91 L 3.04 -12.87 L 5.96 -12.87 L 6.48 -12.35 L 6.48 -12.87 L 8.82 -12.87 L 8.82 -9.09 L 6.48 -9.09 L 6.48 -10.53 L 3.42 -10.53 L 3.42 -7.47 L 6.86 -7.47 L 8.82 -5.51 L 8.82 -1.69 L 6.86 0.27 Z M 0.9 -1.62 L 2.97 0.45 L 6.93 0.45 L 9 -1.62 L 9 -5.58 L 6.93 -7.65 L 3.6 -7.65 L 3.6 -10.35 L 6.3 -10.35 L 6.3 -8.91 L 9 -8.91 L 9 -13.05 L 6.3 -13.05 L 6.3 -12.78 L 6.03 -13.05 L 2.97 -13.05 L 0.9 -10.98 L 0.9 -7.02 L 2.97 -4.95 L 6.3 -4.95 L 6.3 -2.25 L 3.6 -2.25 L 3.6 -4.05 L 0.9 -4.05 Z M 1.35 -1.8 L 3.15 0 L 6.75 0 L 8.55 -1.8 L 8.55 -5.4 L 6.75 -7.2 L 3.15 -7.2 L 3.15 -10.8 L 6.75 -10.8 L 6.75 -9.36 L 8.55 -9.36 L 8.55 -12.6 L 6.75 -12.6 L 6.75 -11.7 L 5.85 -12.6 L 3.15 -12.6 L 1.35 -10.8 L 1.35 -7.2 L 3.15 -5.4 L 6.75 -5.4 L 6.75 -1.8 L 3.15 -1.8 L 3.15 -3.6 L 1.35 -3.6 Z" stroke-linecap="round" />
</g>
</g>
</g>
<g transform="matrix(1.9211538461538462 0 0 1.9211538461538462 608.6884376944528 387.55719123090057)" id="tagline-85976805-6fa4-4c16-813a-d852e365abb5-logo"  >
<g style=""  paint-order="stroke"   >
		<g transform="matrix(1 0 0 1 0 0)" id="tagline-85976805-6fa4-4c16-813a-d852e365abb5-logo-path-0"  >
<path style="stroke: none; stroke-width: 0; stroke-dasharray: none; stroke-linecap: butt; stroke-dashoffset: 0; stroke-linejoin: miter; stroke-miterlimit: 4; fill: rgb(54,83,89); fill-rule: nonzero; opacity: 1;"  paint-order="stroke"  transform=" translate(-8.5, 11.55)" d="M 6.11 0 L 10.23 0 L 14.69 -4.46 L 15.35 -5.28 L 15.35 -8.58 L 12.54 -8.81 L 10.92 -8.91 L 11.38 -6.93 L 11.38 -6.11 L 9.24 -3.96 L 7.76 -3.96 L 5.61 -6.11 L 5.61 -17 L 7.76 -19.14 L 9.24 -19.14 L 11.38 -17 L 11.38 -16.83 L 10.92 -14.82 L 15.35 -15.18 L 15.35 -18.64 L 10.89 -23.1 L 6.11 -23.1 L 1.65 -18.64 L 1.65 -4.46 Z" stroke-linecap="round" />
</g>
</g>
</g>
<g transform="matrix(1.9211538461538462 0 0 1.9211538461538462 671.0556504982424 387.55719123090057)" id="tagline-83533c14-d374-47cd-9964-2af4bd824966-logo"  >
<g style=""  paint-order="stroke"   >
		<g transform="matrix(1 0 0 1 0 0)" id="tagline-83533c14-d374-47cd-9964-2af4bd824966-logo-path-0"  >
<path style="stroke: none; stroke-width: 0; stroke-dasharray: none; stroke-linecap: butt; stroke-dashoffset: 0; stroke-linejoin: miter; stroke-miterlimit: 4; fill: rgb(54,83,89); fill-rule: nonzero; opacity: 1;"  paint-order="stroke"  transform=" translate(-8.5, 11.55)" d="M 11.38 -6.11 L 9.24 -3.96 L 7.76 -3.96 L 5.61 -6.11 L 5.61 -17 L 7.76 -19.14 L 9.24 -19.14 L 11.38 -17 Z M 1.65 -4.46 L 6.11 0 L 10.89 0 L 15.35 -4.46 L 15.35 -18.64 L 10.89 -23.1 L 6.11 -23.1 L 1.65 -18.64 Z" stroke-linecap="round" />
</g>
</g>
</g>
</svg>